<svg aria-hidden="true" xmlns="http://www.w3.org/2000/svg" xmlns:xlink="http://www.w3.org/1999/xlink"><symbol viewBox="0 0 30 30" fill="none" id="IconArrowLeft" xmlns="http://www.w3.org/2000/svg">
<path d="M27.1875 15C27.1875 15.5178 26.7678 15.9375 26.25 15.9375L3.75 15.9375C3.23225 15.9375 2.8125 15.5177 2.8125 15C2.8125 14.4822 3.23225 14.0625 3.75 14.0625L26.25 14.0625C26.7678 14.0625 27.1875 14.4822 27.1875 15Z" fill="currentColor"/>
<path d="M11.9129 23.1629C11.5468 23.529 10.9532 23.529 10.587 23.1629L3.08703 15.6629C2.72091 15.2968 2.72091 14.7033 3.08703 14.3371L10.587 6.83712C10.9532 6.471 11.5468 6.471 11.9129 6.83712C12.279 7.20325 12.279 7.79675 11.9129 8.16287L5.07578 15L11.9129 21.8371C12.279 22.2032 12.279 22.7968 11.9129 23.1629Z" fill="currentColor"/>
</symbol><symbol viewBox="0 0 30 30" fill="none" id="IconArrowOpen" xmlns="http://www.w3.org/2000/svg">
<g clip-path="url(#bclip0_2123_1585)">
<path d="M29.8999 6.94341C29.7534 6.6563 29.4663 6.39262 29.1968 6.29301C28.9038 6.17583 28.4175 6.20512 28.1304 6.35161C28.0366 6.40434 25.0483 9.63286 21.5034 13.5235C17.9585 17.4141 15.0288 20.5957 14.9995 20.5957C14.9702 20.5957 12.0405 17.4141 8.49561 13.5235C4.95068 9.63286 1.9624 6.40434 1.86865 6.35161C1.6167 6.2227 1.11865 6.18168 0.85498 6.26958C0.57373 6.36333 0.257324 6.63872 0.11084 6.91997C-0.0356446 7.21293 -0.0356446 7.74028 0.11084 8.05668C0.245605 8.34379 14.021 23.4727 14.3081 23.6426C14.4604 23.7364 14.6069 23.7598 15.0112 23.7598C15.48 23.7598 15.5327 23.7481 15.7612 23.584C16.1245 23.3204 29.7593 8.33794 29.8882 8.05669C30.0229 7.76372 30.0288 7.1895 29.8999 6.94341Z" fill="currentColor"/>
</g>
<defs>
<clipPath id="bclip0_2123_1585">
<rect width="30" height="30" fill="currentColor" transform="translate(30) rotate(90)"/>
</clipPath>
</defs>
</symbol><symbol viewBox="0 0 30 30" fill="none" id="IconArrowRight" xmlns="http://www.w3.org/2000/svg">
<path d="M2.8125 15C2.8125 14.4822 3.23224 14.0625 3.75 14.0625L26.25 14.0625C26.7678 14.0625 27.1875 14.4822 27.1875 15C27.1875 15.5178 26.7678 15.9375 26.25 15.9375L3.75 15.9375C3.23224 15.9375 2.8125 15.5178 2.8125 15Z" fill="currentColor"/>
<path d="M18.0871 6.83708C18.4532 6.47097 19.0468 6.47097 19.413 6.83708L26.913 14.3371C27.2791 14.7032 27.2791 15.2967 26.913 15.6629L19.413 23.1629C19.0468 23.529 18.4532 23.529 18.0871 23.1629C17.721 22.7968 17.721 22.2033 18.0871 21.8371L24.9242 15L18.0871 8.16291C17.721 7.7968 17.721 7.2032 18.0871 6.83708Z" fill="currentColor"/>
</symbol><symbol viewBox="0 0 30 30" fill="none" id="IconCargoAdd" xmlns="http://www.w3.org/2000/svg">
<path d="M4.16016 1.95703C3.11133 2.25 2.23242 3.13477 1.95703 4.18945C1.83984 4.62305 1.83984 25.377 1.95703 25.8105C2.23828 26.8711 3.06445 27.709 4.1543 28.0312C4.44141 28.1133 5.49023 28.125 15.0176 28.125H25.5527L25.9922 27.9785C26.9766 27.6445 27.6445 26.9824 27.9785 25.998L28.125 25.5527V15V4.44727L27.9785 4.00195C27.6328 2.98242 26.8359 2.22656 25.8105 1.95703C25.3945 1.8457 4.55859 1.8457 4.16016 1.95703ZM10.6055 5.00977V6.85547H6.88477H3.16406V5.77148C3.16406 4.81055 3.17578 4.65234 3.29297 4.35352C3.45703 3.9082 3.90234 3.46289 4.33594 3.29297C4.64648 3.17578 4.75781 3.16992 7.63477 3.16992L10.6055 3.16406V5.00977ZM18.1055 8.4668V13.7695L16.6875 12.8203C15.375 11.9414 15.2461 11.8652 15 11.8652C14.7539 11.8652 14.625 11.9414 13.3184 12.8203L11.8945 13.7695V8.4668V3.16406H15H18.1055V8.4668ZM25.6465 3.29297C26.0977 3.46289 26.5371 3.90234 26.707 4.35352C26.8242 4.65234 26.8359 4.81055 26.8359 5.77148V6.85547H23.1152H19.3945V5.00977V3.16406H22.3535C25.2363 3.16406 25.3184 3.16992 25.6465 3.29297ZM10.6055 11.6953V15.2461L10.8047 15.4453C10.9688 15.6094 11.0508 15.6445 11.2441 15.6445C11.4551 15.6445 11.6719 15.5156 13.2422 14.4727L15 13.3008L16.7578 14.4727C18.3281 15.5156 18.5449 15.6445 18.7559 15.6445C18.9492 15.6445 19.0312 15.6094 19.1953 15.4453L19.3945 15.2461V11.6953V8.14453H23.1152H26.8359V16.7285V25.3066L26.707 25.6465C26.5371 26.0977 26.0977 26.5371 25.6465 26.707L25.3066 26.8359H15H4.69336L4.35352 26.707C3.90234 26.5371 3.46289 26.0977 3.29297 25.6465L3.16406 25.3066V16.7285V8.14453H6.88477H10.6055V11.6953Z" fill="currentColor"/>
<path d="M16.5408 19.4531C16.4412 19.5117 16.324 19.6172 16.2947 19.6816C16.1541 19.9453 16.2772 20.4375 16.5174 20.5664C16.5936 20.6016 17.8123 20.625 20.0213 20.625H23.4139L23.5779 20.4609C23.7772 20.2441 23.8299 19.9395 23.7069 19.6992C23.5135 19.3301 23.6014 19.3359 19.9979 19.3359C16.8631 19.3359 16.7225 19.3418 16.5408 19.4531Z" fill="currentColor"/>
<path d="M16.506 22.5644C16.254 22.7109 16.1486 23.2324 16.3244 23.4844C16.5412 23.7949 16.5001 23.7891 20.0099 23.7891C23.5958 23.7891 23.5138 23.7949 23.7072 23.4258C23.8302 23.1855 23.7775 22.8809 23.5783 22.6641L23.4142 22.5H20.0158C17.8126 22.5059 16.5763 22.5234 16.506 22.5644Z" fill="currentColor"/>
</symbol><symbol viewBox="0 0 30 30" fill="none" id="IconCargos" xmlns="http://www.w3.org/2000/svg">
<path d="M4.16064 1.95697C3.11181 2.24994 2.2329 3.1347 1.95751 4.18939C1.89306 4.42962 1.87548 6.3222 1.87548 14.3906C1.87548 25.3359 1.84618 24.5214 2.24462 25.2831C2.63134 26.0097 3.50439 26.6601 4.3247 26.83C4.5415 26.8769 6.87353 26.8945 11.8716 26.8945H19.1079L19.8931 27.4218C21.2349 28.3183 21.27 28.3183 23.0454 27.1347C24.5864 26.1093 25.2602 25.5585 25.8755 24.8261C26.9302 23.5722 27.5747 22.2714 27.9556 20.6542C28.0552 20.2265 28.0845 19.8632 28.1079 18.7558C28.1431 17.2968 28.1138 17.08 27.8735 16.8163C27.6274 16.5468 27.5278 16.4941 26.6079 16.1952L25.6938 15.9023L25.6645 10.1308C25.6294 3.7265 25.6645 4.24798 25.2368 3.43939C25.0317 3.04681 24.4165 2.44329 23.9888 2.21478C23.3267 1.85736 23.8774 1.87494 13.7114 1.88079C6.47509 1.88665 4.36572 1.90423 4.16064 1.95697ZM8.74267 6.87884L8.76025 10.5937L8.93603 10.8515C9.19384 11.2089 9.55126 11.3964 9.99072 11.3964C10.4595 11.3964 10.7349 11.2441 11.104 10.7929C11.5376 10.248 11.6313 10.2714 12.5688 11.2265C12.9673 11.6308 13.0903 11.7187 13.3774 11.8124C13.6704 11.9003 13.7524 11.9062 13.9927 11.8417C14.3852 11.7421 14.6724 11.5253 14.9712 11.1035C15.4224 10.4706 15.7212 10.3007 15.9849 10.5292C16.0493 10.5878 16.2427 10.8046 16.4067 11.0097C16.7583 11.4374 17.0571 11.5956 17.4966 11.6015C17.895 11.6015 18.3345 11.3788 18.5513 11.0624L18.7212 10.8222L18.7388 6.99017L18.7505 3.15814L20.8774 3.17572L22.9985 3.19329L23.2974 3.3515C23.6724 3.55072 24.0942 4.01361 24.2349 4.38275C24.3345 4.64056 24.3462 4.99798 24.3638 10.0077L24.3813 15.3574L23.7837 15.0585C23.4556 14.8945 22.8579 14.5546 22.4477 14.3085L21.7095 13.8574H21.27H20.8306L20.0688 14.3027C18.522 15.2109 17.6606 15.6035 16.0376 16.1425C14.3501 16.705 14.3267 16.7402 14.3677 18.6445C14.3911 19.6113 14.4263 20.0331 14.5259 20.5253C14.8716 22.2363 15.727 23.8945 16.8989 25.1191L17.3618 25.6054L10.9751 25.5937L4.58837 25.5761L4.18408 25.371C3.89697 25.2245 3.72118 25.0839 3.56298 24.873C3.13525 24.3163 3.16454 25.0663 3.16454 14.3495V4.69329L3.29345 4.35345C3.45751 3.90814 3.90283 3.46283 4.33642 3.2929C4.64111 3.17572 4.77001 3.16986 6.69189 3.16986L8.72509 3.164L8.74267 6.87884ZM17.4614 6.68548V10.207L17.2681 9.95501C16.9868 9.58587 16.6294 9.33392 16.1899 9.19915C15.8442 9.09369 15.7563 9.08783 15.4692 9.14642C14.8481 9.27533 14.4673 9.53314 14.0571 10.0898C13.8989 10.3124 13.7524 10.4882 13.7349 10.4882C13.7173 10.4882 13.4829 10.2656 13.2251 9.99603C12.7095 9.47454 12.3638 9.26947 11.7895 9.14642C11.2329 9.02923 10.6411 9.25189 10.231 9.73822L10.02 9.98431V6.57415V3.164H13.7407H17.4614V6.68548ZM22.1782 15.6913C23.4145 16.4062 24.7739 16.998 26.1567 17.4316L26.854 17.6542L26.8188 18.7441C26.7954 19.623 26.7602 19.9511 26.6431 20.4492C26.2329 22.1718 25.395 23.5839 24.0649 24.7675C23.7427 25.0546 21.3345 26.7187 21.2407 26.7187C21.2173 26.7187 20.6431 26.3437 19.9634 25.8867C18.9263 25.1894 18.6157 24.9492 18.0708 24.4042C16.8579 23.1913 16.1138 21.8144 15.7915 20.1503C15.7388 19.8808 15.6802 19.207 15.6626 18.6562L15.6274 17.6484L15.9731 17.5546C17.4028 17.162 19.4712 16.248 20.7427 15.4452C21.2231 15.1406 21.2466 15.1347 21.3872 15.2285C21.4692 15.2753 21.8267 15.4863 22.1782 15.6913Z" fill="currentColor"/>
<path d="M6.03516 19.377C5.98828 19.3945 5.87695 19.4766 5.78906 19.5586C5.6543 19.6816 5.625 19.7578 5.625 19.998C5.625 20.2324 5.6543 20.3086 5.79492 20.4551L5.96484 20.625H8.4375H10.9102L11.0801 20.4551C11.2207 20.3086 11.25 20.2324 11.25 19.998C11.25 19.752 11.2207 19.6816 11.0684 19.5352L10.8926 19.3652L8.50781 19.3535C7.19531 19.3477 6.08203 19.3594 6.03516 19.377Z" fill="currentColor"/>
<path d="M5.90625 21.9492C5.69531 22.0605 5.625 22.2012 5.625 22.5C5.625 22.8047 5.70117 22.9453 5.91797 23.0566C6.05859 23.1328 6.45703 23.1445 8.4375 23.1445C10.418 23.1445 10.8164 23.1328 10.957 23.0566C11.1738 22.9453 11.25 22.8047 11.25 22.5C11.25 22.1953 11.1738 22.0547 10.957 21.9434C10.7051 21.8145 6.14648 21.8145 5.90625 21.9492Z" fill="currentColor"/>
<path d="M21.7266 19.8457L20.625 20.9414L20.1621 20.4844C19.7812 20.1035 19.6699 20.0273 19.4707 19.998C19.0312 19.9395 18.75 20.2148 18.75 20.7012C18.75 20.9355 18.7793 20.9707 19.5293 21.7207L20.3086 22.5H20.625H20.9414L22.3066 21.1406C23.7656 19.6875 23.8535 19.5645 23.7305 19.1895C23.6367 18.8965 23.4199 18.75 23.0977 18.75H22.8281L21.7266 19.8457Z" fill="currentColor"/>
</symbol><symbol viewBox="0 0 30 30" fill="none" id="IconClose(Error)" xmlns="http://www.w3.org/2000/svg">
<path d="M1.04297 1.04297L0 2.08594V2.40234V2.72461L6.13477 8.85938L12.2754 15L6.13477 21.1406L0 27.2754V27.5977V27.9141L1.04297 28.957L2.08594 30H2.40234H2.72461L8.85938 23.8652L15 17.7246L21.1406 23.8652L27.2754 30H27.5977H27.9199L28.957 28.957L30 27.9082V27.5918V27.2754L23.8652 21.1406L17.7246 15L23.8652 8.85938L30 2.72461V2.4082V2.0918L28.957 1.04297L27.9199 0H27.5977H27.2754L21.1406 6.13477L15 12.2754L8.85938 6.13477L2.72461 0H2.40234H2.08594L1.04297 1.04297Z" fill="currentColor"/>
</symbol><symbol viewBox="0 0 30 30" fill="none" id="IconCompany" xmlns="http://www.w3.org/2000/svg">
<g clip-path="url(#gclip0_2093_2211)">
<path d="M15.2051 2.36133C13.4648 3.36914 9.92578 5.41406 7.33594 6.9082C3.75 8.98242 2.61328 9.66211 2.57227 9.76758C2.46094 10.0605 2.67188 10.3711 2.98242 10.3711C3.09961 10.3711 3.86719 9.9668 4.67578 9.48047L4.86328 9.36328V10.0078V10.6523L3.76758 11.291C2.57227 11.9824 2.44336 12.0996 2.57812 12.416C2.64258 12.5742 2.84766 12.7148 3.00586 12.7148C3.04688 12.7148 3.46875 12.4922 3.94922 12.2168C4.42383 11.9414 4.82812 11.7188 4.83984 11.7188C4.85156 11.7188 4.86328 14.7773 4.86328 18.5156V25.3125H3.78516C2.37891 25.3125 2.4375 25.2715 2.4082 26.2383L2.39062 26.9473L1.54102 26.9648C0.779297 26.9824 0.685547 26.9941 0.609375 27.0938C0.544922 27.1816 0.527344 27.4453 0.527344 28.2422C0.527344 29.1738 0.539062 29.291 0.632812 29.373C0.732422 29.4668 1.81641 29.4727 15.0117 29.4727C28.7578 29.4727 29.2852 29.4668 29.373 29.3672C29.4609 29.2734 29.4727 29.1035 29.4727 28.2363C29.4727 27.4453 29.4551 27.1816 29.3906 27.0938C29.3145 26.9941 29.2207 26.9824 28.459 26.9648L27.6094 26.9473L27.5918 26.2383C27.5625 25.2949 27.5859 25.3125 26.4492 25.3125H25.6055V19.7461C25.6055 16.6816 25.6172 14.1797 25.623 14.1797C25.6348 14.1797 25.9219 14.3379 26.2559 14.5312C27.041 14.9824 27.3105 14.9883 27.4453 14.5547C27.5273 14.291 27.3691 14.1387 26.5664 13.6816C25.5117 13.0723 25.5938 13.1602 25.6172 12.7031L25.6348 12.3105L26.25 12.6562C26.9062 13.0312 27.0938 13.0723 27.3105 12.8965C27.4688 12.7676 27.498 12.4102 27.3633 12.2812C27.293 12.2168 24.0352 10.3711 17.5898 6.74414L16.6934 6.24609L16.7109 5.54297L16.7285 4.83984L17.8008 4.21875C18.3926 3.87891 18.8965 3.5625 18.9258 3.51562C19.1016 3.24023 18.8965 2.8125 18.5977 2.8125C18.5098 2.8125 18.0762 3.02344 17.6133 3.28711C17.1621 3.55078 16.7695 3.7793 16.7461 3.79102C16.7168 3.80273 16.6992 3.52734 16.6992 3.17578V2.53125L17.6543 1.99219C18.9375 1.25391 18.9844 1.21875 18.9844 0.943359C18.9844 0.802734 18.9434 0.685547 18.8789 0.626953C18.627 0.398438 18.5156 0.445312 15.2051 2.36133ZM15.7793 4.3418C15.7559 4.36523 13.5996 5.61328 10.9863 7.11914C8.37891 8.625 6.12891 9.92578 5.99414 10.002L5.74219 10.1484V9.50391V8.85938L10.7695 5.95898L15.791 3.05859L15.8086 3.67969C15.8145 4.01953 15.8027 4.31836 15.7793 4.3418ZM15.8203 15.3516V25.3125H14.8828H13.9453V23.584C13.9453 21.9316 13.9395 21.8496 13.8281 21.7383C13.6523 21.5625 13.3418 21.5801 13.1895 21.7734C13.0723 21.9258 13.0664 21.9961 13.0664 23.6191V25.3125H12.1289H11.1914V23.584C11.1914 21.9316 11.1855 21.8496 11.0742 21.7383C10.9277 21.5918 10.6582 21.5859 10.4824 21.7324L10.3418 21.8438L10.3242 23.5781L10.3066 25.3125H9.4043H8.50195L8.48438 23.5781L8.4668 21.8438L8.32617 21.7324C8.15039 21.5859 7.88086 21.5918 7.73438 21.7383C7.62305 21.8496 7.61719 21.9316 7.61719 23.584V25.3125H6.67969H5.74219L5.75391 18.2402L5.77148 11.1621L10.752 8.28516C13.4941 6.69727 15.75 5.39648 15.7793 5.39648C15.8027 5.39062 15.8203 9.87305 15.8203 15.3516ZM20.8477 9.60938L24.7266 11.7949V12.1992V12.5977L24.5098 12.4863C24.3867 12.4219 22.5879 11.3848 20.5078 10.1836L16.7285 7.99805L16.7109 7.62305L16.6934 7.24805L16.8281 7.33594C16.9043 7.38281 18.709 8.4082 20.8477 9.60938ZM20.8594 11.4141L24.6973 13.6289L24.7148 14.8418L24.7266 16.0547H22.6172C20.584 16.0547 20.502 16.0605 20.3906 16.1719C20.2148 16.3477 20.2324 16.6582 20.4258 16.8105C20.5781 16.9277 20.6484 16.9336 22.6523 16.9336H24.7266V17.8711V18.8027L22.6113 18.8203L20.4961 18.8379L20.3848 18.9785C20.25 19.1426 20.2441 19.3828 20.3672 19.5586L20.4551 19.6875H22.5938H24.7266V22.5V25.3125H22.9395H21.1523V23.6191C21.1523 21.9961 21.1465 21.9258 21.0293 21.7734C20.877 21.5801 20.5664 21.5625 20.3906 21.7383C20.2793 21.8496 20.2734 21.9316 20.2734 23.584V25.3125H18.4863H16.6992V17.168V9.01758L16.8633 9.10547C16.9512 9.15234 18.75 10.1895 20.8594 11.4141ZM26.7188 26.5723V26.9531H15H3.28125V26.5723V26.1914H15H26.7188V26.5723ZM28.6523 28.2422V28.6523H15H1.34766V28.2422V27.832H15H28.6523V28.2422Z" fill="currentColor"/>
<path d="M7.73438 10.6054C7.62305 10.7168 7.61719 10.7988 7.61719 12.3222C7.61719 13.8047 7.62305 13.9336 7.72266 14.0215C7.88086 14.1621 8.2207 14.1504 8.35547 13.998C8.46094 13.8808 8.4668 13.7636 8.4668 12.2929V10.7109L8.32617 10.5996C8.15039 10.4531 7.88086 10.459 7.73438 10.6054Z" fill="currentColor"/>
<path d="M10.4824 10.5996L10.3418 10.7109V12.293C10.3418 13.7637 10.3477 13.8808 10.4531 13.998C10.5996 14.1562 10.957 14.168 11.0918 14.0156C11.1797 13.9219 11.1914 13.7168 11.1914 12.3164C11.1914 10.7988 11.1855 10.7168 11.0742 10.6055C10.9277 10.459 10.6582 10.4531 10.4824 10.5996Z" fill="currentColor"/>
<path d="M13.2129 10.6348L13.0664 10.7754V12.2754C13.0664 14.0508 13.084 14.1211 13.5469 14.1211C13.9336 14.1211 13.9453 14.0742 13.9453 12.293C13.9453 10.7578 13.9453 10.7227 13.8164 10.6055C13.6406 10.4473 13.3887 10.4531 13.2129 10.6348Z" fill="currentColor"/>
<path d="M7.73438 16.172C7.62305 16.2833 7.61719 16.3653 7.61719 17.8888C7.61719 19.3712 7.62305 19.5001 7.72266 19.588C7.88086 19.7286 8.2207 19.7169 8.35547 19.5645C8.46094 19.4474 8.4668 19.3302 8.4668 17.8595V16.2774L8.32617 16.1661C8.15039 16.0196 7.88086 16.0255 7.73438 16.172Z" fill="currentColor"/>
<path d="M10.4824 16.166L10.3418 16.2773V17.8594C10.3418 19.3301 10.3477 19.4473 10.4531 19.5644C10.5996 19.7226 10.957 19.7344 11.0918 19.582C11.1797 19.4883 11.1914 19.2832 11.1914 17.8828C11.1914 16.3652 11.1855 16.2832 11.0742 16.1719C10.9277 16.0254 10.6582 16.0195 10.4824 16.166Z" fill="currentColor"/>
<path d="M13.2129 16.2012L13.0664 16.3418V17.8418C13.0664 19.5996 13.0898 19.6816 13.5234 19.6875C13.6348 19.6875 13.7578 19.6406 13.8281 19.5703C13.9395 19.459 13.9453 19.377 13.9453 17.8711C13.9453 16.3242 13.9453 16.2891 13.8164 16.1719C13.6406 16.0137 13.3887 16.0195 13.2129 16.2012Z" fill="currentColor"/>
</g>
<defs>
<clipPath id="gclip0_2093_2211">
<rect width="30" height="30" fill="currentColor"/>
</clipPath>
</defs>
</symbol><symbol viewBox="0 0 30 30" fill="none" id="IconHome" xmlns="http://www.w3.org/2000/svg">
<g clip-path="url(#hclip0_2144_1900)">
<path d="M13.8276 0.210938C13.3999 0.410156 13.23 0.574219 7.04248 6.75586C3.5503 10.2422 0.608889 13.2305 0.497561 13.3945C0.0522485 14.0566 -0.0766578 15.0645 0.175295 15.8262C0.556155 16.957 1.4585 17.625 2.75342 17.7305L3.21631 17.7715L3.23389 22.5527C3.25147 27.2461 3.25733 27.3398 3.37451 27.6562C3.80225 28.7812 4.47022 29.4551 5.50147 29.8066C5.88233 29.9355 5.94092 29.9355 8.72998 29.9414C11.4663 29.9414 11.5776 29.9355 11.7651 29.8242C11.8706 29.7598 12.0054 29.625 12.0698 29.5195C12.1812 29.332 12.187 29.2148 12.187 25.6055C12.187 23.0684 12.2105 21.8086 12.2515 21.6504C12.3511 21.2988 12.6265 20.9414 12.937 20.7598L13.2124 20.5957H15.064H16.9155L17.2026 20.7715C17.5249 20.9707 17.8296 21.4219 17.894 21.7793C17.9116 21.9023 17.9292 23.6426 17.9292 25.6523C17.9292 29.6074 17.9175 29.4551 18.2515 29.7656L18.4097 29.9121L21.228 29.9297C23.1147 29.9414 24.1519 29.9238 24.3569 29.8828C25.1655 29.7129 26.103 28.998 26.4722 28.2715C26.8823 27.4512 26.8589 27.7852 26.8823 22.5234L26.8999 17.7656L27.3804 17.7246C28.5405 17.625 29.3315 17.1094 29.8003 16.1426C29.9995 15.7441 29.9995 15.7266 29.9995 14.9414C29.9995 14.1504 29.9995 14.1445 29.7886 13.7109C29.5894 13.2832 29.4312 13.1191 23.1558 6.84375C16.8804 0.568359 16.7163 0.410156 16.2886 0.210938C15.855 0 15.8491 0 15.0581 0C14.2671 0 14.2612 0 13.8276 0.210938ZM15.4507 1.81641C15.6616 1.89844 28.0366 14.2617 28.1538 14.5078C28.3589 14.9414 28.2065 15.4922 27.814 15.75C27.5855 15.9023 27.5327 15.9082 26.6011 15.9375C25.5464 15.9668 25.4233 16.002 25.2124 16.3301C25.1128 16.4766 25.1069 16.8516 25.0776 21.7676C25.0483 26.5898 25.0425 27.0586 24.9487 27.252C24.7905 27.5859 24.562 27.8262 24.2339 27.9961L23.9351 28.1543L21.8433 28.1719L19.7515 28.1953L19.7339 24.8027C19.7163 21.4863 19.7105 21.4102 19.5815 21.0352C19.2358 20.0215 18.562 19.3066 17.5776 18.9316C17.2026 18.7852 17.1675 18.7852 15.2222 18.7617C13.564 18.7441 13.189 18.7559 12.8784 18.832C11.6655 19.1426 10.7105 20.1211 10.4526 21.3223C10.3882 21.627 10.3706 22.3945 10.3706 24.9492V28.1953L8.27881 28.1719L6.18115 28.1543L5.85889 27.9785C5.46631 27.7617 5.18506 27.4043 5.10303 27.0117C5.06201 26.8066 5.03858 25.084 5.03858 21.6328C5.03858 16.6992 5.03272 16.5469 4.92139 16.3652C4.70459 16.0078 4.5874 15.9727 3.51514 15.9375C2.5835 15.9082 2.53076 15.9023 2.30225 15.75C1.90967 15.4922 1.75733 14.9414 1.9624 14.5078C2.07373 14.2793 14.4487 1.89844 14.648 1.82227C14.8472 1.74609 15.2456 1.74609 15.4507 1.81641Z" fill="currentColor"/>
</g>
<defs>
<clipPath id="hclip0_2144_1900">
<rect width="30" height="30" fill="currentColor"/>
</clipPath>
</defs>
</symbol><symbol viewBox="0 0 30 30" fill="none" id="IconLogin" xmlns="http://www.w3.org/2000/svg">
<path d="M5.58489 0.240564C4.16177 0.557503 3.02452 1.57047 2.55222 2.94387L2.4155 3.34781L2.39686 14.8695C2.38443 26.2731 2.38443 26.3973 2.50872 26.851C2.8878 28.2368 3.91941 29.2747 5.33631 29.7097C5.69054 29.8153 6.10069 29.8215 12.7937 29.8215C19.4867 29.8215 19.8969 29.8153 20.2511 29.7097C21.6742 29.2747 22.7307 28.1996 23.0787 26.8324C23.1781 26.4409 23.203 26.1426 23.203 25.2601C23.203 24.0607 23.1595 23.8991 22.7928 23.6568C22.5691 23.5138 22.0346 23.5138 21.8109 23.6568C21.4691 23.8867 21.4194 24.0483 21.3821 25.1793C21.3635 25.9002 21.32 26.3041 21.2516 26.4968C21.1087 26.8883 20.7358 27.3606 20.3816 27.603C19.7726 28.0069 20.1392 27.9945 12.6632 27.9758L5.89561 27.9572L5.47924 27.7521C4.97587 27.5035 4.5595 27.0685 4.36063 26.5714L4.2177 26.2171V15V3.78282L4.36063 3.4286C4.5595 2.93144 4.97587 2.49642 5.47924 2.24784C5.87697 2.04898 5.92669 2.04277 6.74078 2.02412C7.48652 2.00548 7.62946 2.01791 7.87182 2.12355C8.24469 2.29135 8.34412 2.45914 8.51191 3.22973C8.5927 3.58396 8.73563 4.0314 8.82885 4.23027C9.04014 4.65907 9.51245 5.15001 9.94125 5.37995C10.5378 5.7031 10.8299 5.74039 12.7378 5.74039C13.701 5.74039 14.6332 5.70931 14.8134 5.67824C15.3292 5.57881 15.7766 5.34266 16.1868 4.95736C16.6529 4.50992 16.8828 4.05005 17.0755 3.1738C17.3054 2.11734 17.5105 1.98684 18.8652 2.01791C19.6545 2.04277 19.7166 2.05519 20.1081 2.24784C20.798 2.58343 21.233 3.18623 21.3448 3.95061C21.3759 4.16812 21.4008 5.74039 21.4008 7.44937C21.4008 10.4199 21.407 10.5628 21.5251 10.7555C21.7053 11.0538 21.929 11.1719 22.2956 11.1719C22.5318 11.1719 22.6747 11.1346 22.8177 11.0289C23.2216 10.7431 23.2092 10.8922 23.1905 6.93357C23.1719 3.42238 23.1657 3.34159 23.0352 2.94387C22.625 1.75068 21.6866 0.806084 20.4686 0.371069L19.9404 0.178419L12.9491 0.165991C7.31873 0.159777 5.88318 0.172205 5.58489 0.240564ZM15.4038 2.11734C15.3851 2.17949 15.3168 2.47157 15.2546 2.76365C15.1303 3.36645 14.9812 3.62746 14.658 3.77661C14.4716 3.86983 14.223 3.88226 12.7067 3.86361C11.0536 3.84497 10.9604 3.83875 10.7926 3.71446C10.5378 3.52181 10.4135 3.27324 10.3079 2.72636C10.2582 2.45914 10.2023 2.19191 10.1836 2.12355C10.1463 2.01791 10.2458 2.01169 12.7937 2.01169C15.2981 2.01169 15.4473 2.01791 15.4038 2.11734Z" fill="currentColor"/>
<path d="M12.8554 13.378C12.2712 13.521 11.7865 13.9187 11.5068 14.4904L11.3018 14.9068V17.3615V19.8163L11.5068 20.2326C11.7306 20.6863 12.0413 20.997 12.5074 21.2269L12.7932 21.3699H19.4427H26.0922L26.4465 21.2021C26.8566 21.0094 27.2419 20.6366 27.4408 20.2326C27.5837 19.9405 27.5837 19.9281 27.5837 17.3615C27.5837 14.7949 27.5837 14.7825 27.4408 14.4904C27.2419 14.0865 26.8566 13.7136 26.4465 13.521L26.0922 13.3532L19.567 13.3408C15.9813 13.3408 12.961 13.3532 12.8554 13.378ZM25.7504 15.3045C25.8374 15.4723 25.8374 19.2507 25.7504 19.4185C25.6883 19.5366 25.5516 19.5366 19.4862 19.5366C14.7446 19.5366 13.2655 19.518 13.2096 19.462C13.104 19.3564 13.104 15.3667 13.2096 15.261C13.2655 15.2051 14.7446 15.1865 19.4862 15.1865C25.5516 15.1865 25.6883 15.1865 25.7504 15.3045Z" fill="currentColor"/>
<path d="M15.3101 16.8581C15.2106 16.9575 15.1112 17.1067 15.0863 17.1999C15.0304 17.436 15.105 17.6597 15.3101 17.8648C15.453 18.0078 15.54 18.045 15.7637 18.045C16.2609 18.045 16.584 17.61 16.4287 17.1439C16.2671 16.6592 15.6581 16.5039 15.3101 16.8581Z" fill="currentColor"/>
<path d="M19.0883 16.7773C18.8646 16.8954 18.79 17.0445 18.79 17.3739C18.7963 17.7902 19.0635 18.045 19.5047 18.045C19.8465 18.045 20.1572 17.7157 20.1572 17.3615C20.1572 17.1502 20.1199 17.0632 19.9459 16.8891C19.7781 16.7214 19.6849 16.6779 19.4985 16.6779C19.3618 16.6841 19.1816 16.7214 19.0883 16.7773Z" fill="currentColor"/>
<path d="M22.6934 16.8582C22.5131 17.0197 22.4883 17.0757 22.4883 17.3615C22.4883 17.6474 22.5131 17.7033 22.6934 17.8649C22.9233 18.07 23.2216 18.1011 23.5137 17.9519C23.7436 17.8338 23.8244 17.6847 23.8244 17.3615C23.8244 17.0384 23.7436 16.8892 23.5137 16.7711C23.2216 16.622 22.9233 16.6531 22.6934 16.8582Z" fill="currentColor"/>
</symbol><symbol viewBox="0 0 30 30" fill="none" id="IconMail" xmlns="http://www.w3.org/2000/svg">
<path d="M3.75826 4.50004C2.08034 4.82941 0.769087 6.05367 0.290572 7.73158C0.184925 8.10445 0.178711 8.53325 0.178711 14.2506C0.178711 19.9679 0.184925 20.3967 0.290572 20.7696C0.713157 22.2611 1.76962 23.3797 3.22381 23.8706L3.72097 24.0384L9.12757 24.057C12.8936 24.0695 14.6025 24.057 14.7641 24.0073C15.1121 23.9079 15.3358 23.5847 15.3358 23.1684C15.3421 22.8079 15.2302 22.6029 14.9133 22.3667C14.7455 22.2362 14.6771 22.2362 9.35751 22.2051C4.46671 22.1741 3.94469 22.1616 3.70233 22.0684C3.06845 21.8136 2.54643 21.3102 2.23571 20.6577L2.04306 20.2476V14.2506V8.2536L2.19221 7.92423C2.27299 7.75022 2.36 7.60107 2.38485 7.60107C2.41593 7.60107 4.27406 9.12362 6.5237 10.988C8.77956 12.8523 10.7744 14.4805 10.9608 14.611C12.1975 15.4375 14.0308 15.5494 15.3483 14.8845C15.8889 14.611 16.1002 14.4432 20.4069 10.8761C22.5757 9.07391 24.3779 7.6135 24.4152 7.61972C24.4463 7.63215 24.5333 7.78129 24.6017 7.94909C24.7197 8.23495 24.7259 8.44003 24.757 11.019C24.7943 14.089 24.7881 14.0517 25.2107 14.3189C25.4965 14.4992 26.0558 14.4619 26.2858 14.2444C26.6276 13.9274 26.6214 13.9771 26.6214 11.0501C26.6214 7.94909 26.6089 7.81858 26.1366 6.85534C25.9005 6.36439 25.7638 6.17796 25.3225 5.73051C24.8751 5.28928 24.6887 5.15257 24.1977 4.91641C23.135 4.40061 23.887 4.43168 13.3721 4.4379C8.23269 4.44411 3.9074 4.46897 3.75826 4.50004ZM22.7497 6.34575C22.8678 6.38303 22.3023 6.88019 18.9154 9.68293C16.3426 11.8145 14.8014 13.0512 14.5528 13.1817C13.8133 13.567 13.0489 13.5794 12.2907 13.219C12.0981 13.1258 10.4264 11.7896 7.92818 9.72021C4.66557 7.01691 3.9074 6.35818 4.01926 6.33953C4.24299 6.29603 22.6006 6.30225 22.7497 6.34575Z" fill="currentColor"/>
<path d="M23.017 15.8478C21.2894 15.9658 19.9471 16.5562 18.8222 17.6935C16.7777 19.7567 16.3489 22.9633 17.7968 25.3559C18.6855 26.8163 19.8228 27.6988 21.3702 28.1214C21.9854 28.2892 23.1475 28.3327 23.8311 28.2146C24.8876 28.0282 25.2169 27.7609 25.1734 27.1022C25.161 26.8288 25.1175 26.7045 24.9994 26.5802C24.6763 26.2322 24.3966 26.1762 23.7317 26.3378C23.2532 26.4559 22.408 26.4559 21.9108 26.3378C19.8601 25.8531 18.4431 23.5599 18.8782 21.4222C19.0832 20.3968 19.5245 19.6075 20.2764 18.8991C21.1464 18.0788 22.1097 17.7183 23.421 17.7121C24.3283 17.7121 24.9 17.8302 25.5898 18.1595C26.8327 18.7437 27.6219 19.7007 27.9016 20.9561C28.1005 21.8447 27.9078 22.8826 27.4479 23.3921C27.218 23.6469 26.6649 23.9577 26.5282 23.908C26.118 23.7464 26.1615 22.23 26.6214 20.8691C26.8389 20.229 26.8513 19.9555 26.6898 19.6572C26.4474 19.1974 25.8197 19.0606 25.3599 19.3714L25.1362 19.5267L24.8627 19.3714C24.2848 19.0544 23.8995 18.955 23.2034 18.955C22.4639 18.955 21.9046 19.1104 21.3391 19.4708C20.4442 20.0488 19.9098 21.2233 19.9968 22.4351C20.0713 23.4605 20.4815 24.3554 21.1713 24.9831C21.6623 25.4243 22.0786 25.5859 22.7995 25.5859C23.4458 25.5859 23.9554 25.4429 24.5396 25.0949L24.8938 24.8774L25.161 25.1508C25.5587 25.561 25.8757 25.7039 26.4847 25.735C26.9073 25.7599 27.0626 25.7412 27.3858 25.6231C28.4112 25.2503 29.2191 24.4113 29.5671 23.3735C30.2382 21.36 29.6354 19.0606 28.0321 17.5692C27.3112 16.8918 26.2361 16.3014 25.2853 16.0591C24.8565 15.9534 23.539 15.7856 23.3588 15.8167C23.3277 15.8229 23.1724 15.8353 23.017 15.8478ZM23.682 20.8691C23.9678 20.9871 24.2972 21.2357 24.4153 21.4222C24.4961 21.5464 24.5023 21.6521 24.4401 22.1803C24.3718 22.7583 24.3531 22.808 24.1418 23.0317C23.6447 23.5537 22.9549 23.852 22.5882 23.6967C22.321 23.5848 22.0973 23.2803 21.9543 22.8204C21.8114 22.3605 21.8052 22.0125 21.9295 21.6334C22.1656 20.9561 23.0046 20.5894 23.682 20.8691Z" fill="currentColor"/>
</symbol><symbol viewBox="0 0 30 30" fill="none" id="IconMap" xmlns="http://www.w3.org/2000/svg">
<path d="M7.21289 3.40426C6.83789 3.46871 2.52539 5.41402 2.0625 5.72457C1.56445 6.06441 1.19531 6.62691 1.06055 7.25387C1.01367 7.47652 0.996094 9.60348 0.996094 14.5488C0.996094 20.6367 1.00781 21.58 1.08398 21.8847C1.35938 22.9394 2.26172 23.7011 3.32812 23.7714C3.9668 23.8183 4.25391 23.7246 5.94727 22.9453C6.75586 22.5761 7.48242 22.2539 7.57617 22.2363C7.70508 22.2011 8.18555 22.4004 10.1953 23.3144C12.9434 24.5683 13.1426 24.6328 13.8633 24.498C14.3848 24.4043 16.4707 23.4726 16.7402 23.2089C17.1621 22.8047 17.0215 22.0429 16.4883 21.8203C16.1543 21.6796 15.9434 21.7265 15.1523 22.0898C14.7363 22.2832 14.3789 22.4414 14.3496 22.4414C14.3203 22.4414 14.2969 19.1367 14.2969 14.8652V7.29488L16.3066 6.38082L18.3105 5.46676L18.3398 9.35153C18.3691 13.1601 18.3691 13.2363 18.4922 13.3945C18.9023 13.9453 19.6055 13.957 19.9629 13.4238L20.0977 13.2246V9.32809C20.0977 6.2402 20.1152 5.44332 20.1738 5.46676C20.7129 5.68356 23.7891 7.12496 23.8711 7.19527C24.1348 7.43551 24.1406 7.4941 24.1406 9.82613C24.1406 11.8183 24.1523 12.0644 24.2461 12.2461C24.5566 12.873 25.4824 12.873 25.793 12.2461C25.8867 12.0586 25.8984 11.8125 25.8984 9.75582C25.8984 7.33004 25.8809 7.16598 25.6055 6.62106C25.4121 6.23434 25.1191 5.90035 24.8027 5.69527C24.6504 5.59566 23.5312 5.06246 22.3242 4.51168C19.9688 3.43356 19.582 3.29879 18.9902 3.37496C18.5332 3.43356 18.4922 3.44527 15.9551 4.60543C14.1914 5.41402 13.6289 5.6484 13.4473 5.6484C13.2715 5.6484 12.6855 5.40231 11.0742 4.66402C9.89648 4.12496 8.77734 3.62106 8.58398 3.54488C8.16211 3.38668 7.64062 3.32809 7.21289 3.40426ZM6.78516 13.0429L6.76758 20.6367L5.30273 21.3105C4.5 21.6796 3.73242 21.9961 3.59766 22.0136C3.29883 22.0488 3.02344 21.9199 2.87109 21.6621C2.75977 21.4804 2.75391 21.3164 2.75391 14.5312C2.75391 7.73434 2.75391 7.58199 2.87109 7.40035C2.93555 7.29488 3.0293 7.18356 3.08789 7.14254C3.2168 7.06637 6.69141 5.4609 6.75586 5.45504C6.7793 5.44918 6.79102 8.8652 6.78516 13.0429ZM10.6816 6.41598L12.5977 7.28902V14.8652C12.5977 19.0312 12.5801 22.4414 12.5566 22.4414C12.5391 22.4414 11.6543 22.0488 10.5938 21.5625C9.5332 21.082 8.64258 20.6836 8.61328 20.6836C8.57227 20.6836 8.55469 17.9414 8.55469 13.0664C8.55469 5.83004 8.56055 5.44918 8.66016 5.49606C8.71289 5.52535 9.62109 5.94137 10.6816 6.41598Z" fill="currentColor"/>
<path d="M22.5177 14.2031C20.7657 14.5371 19.3185 15.6328 18.545 17.1973C17.2911 19.7402 18.0235 22.418 20.7364 25.207C21.8087 26.3203 22.3946 26.6191 23.4669 26.6191C24.5685 26.6133 25.1075 26.332 26.2267 25.1895C28.1603 23.2031 29.1095 21.1992 28.9806 19.3711C28.8048 16.9102 27.1349 14.8652 24.8321 14.291C24.1993 14.1387 23.0919 14.0918 22.5177 14.2031ZM24.3165 15.9727C24.9903 16.1309 25.5177 16.4355 26.0802 16.9922C26.4903 17.3965 26.631 17.584 26.8302 17.9883C27.5274 19.418 27.3458 20.7598 26.2208 22.4414C25.8106 23.0566 24.9786 24.0234 24.4923 24.4512C24.0177 24.8613 23.5724 24.9844 23.0802 24.8379C22.3478 24.6152 20.5021 22.4062 20.0333 21.1934C19.7638 20.4844 19.67 19.9746 19.711 19.4297C19.8165 18.1406 20.6134 16.9102 21.7149 16.3359C22.1075 16.1309 22.5528 15.9668 22.8517 15.9199C23.1974 15.8613 23.9649 15.8848 24.3165 15.9727Z" fill="currentColor"/>
<path d="M23.0918 18.8789C22.7812 19.043 22.6172 19.3242 22.6172 19.6758C22.6172 20.1914 22.957 20.5312 23.4785 20.5312C23.9941 20.5312 24.3281 20.1738 24.3281 19.623C24.3281 18.9609 23.6719 18.5684 23.0918 18.8789Z" fill="currentColor"/>
</symbol><symbol viewBox="0 0 30 30" fill="none" id="IconMenu" xmlns="http://www.w3.org/2000/svg">
<path d="M0.85802 2.87107C0.474497 3.13474 0.282736 3.43038 0.242785 3.82189C0.194845 4.27732 0.466507 4.82864 0.85802 5.05236C1.13767 5.21216 1.23355 5.21216 15.0004 5.21216C28.7673 5.21216 28.8632 5.21216 29.1428 5.05236C29.5343 4.82864 29.806 4.27732 29.7581 3.82189C29.7181 3.43038 29.5263 3.13474 29.1428 2.87107L28.8791 2.69529H15.0004H1.12169L0.85802 2.87107Z" fill="currentColor"/>
<path d="M0.95329 13.8574C0.809469 13.9293 0.593738 14.1131 0.473887 14.2649C0.162274 14.6724 0.170265 15.3355 0.473887 15.735C0.92133 16.3263 -0.317129 16.2784 14.9998 16.2784C30.3168 16.2784 29.0783 16.3263 29.5257 15.735C29.7015 15.5113 29.7415 15.3675 29.7415 15C29.7415 14.6244 29.7015 14.4966 29.5098 14.2409C29.0783 13.6816 30.1889 13.7215 14.9838 13.7215C2.39949 13.7215 1.19299 13.7375 0.95329 13.8574Z" fill="currentColor"/>
<path d="M1.05749 24.8677C0.258483 25.1474 -0.0291586 26.1861 0.514165 26.8253C0.945628 27.3447 -0.180969 27.3047 15.0241 27.3047H28.8789L29.1425 27.1209C29.5261 26.8653 29.7178 26.5696 29.7578 26.1781C29.8057 25.7227 29.534 25.1714 29.1425 24.9476C28.8629 24.7878 28.751 24.7878 15.12 24.7719C3.41456 24.7559 1.32915 24.7719 1.05749 24.8677Z" fill="currentColor"/>
</symbol><symbol viewBox="0 0 30 30" fill="none" id="IconPassword" xmlns="http://www.w3.org/2000/svg">
<path d="M6.64107 0.246838C5.9264 0.395985 5.22417 0.787497 4.67729 1.32816C4.14906 1.85017 3.83833 2.36598 3.61461 3.06821L3.47168 3.5343V15V26.4658L3.61461 26.9319C3.95641 28.0256 4.70836 28.9267 5.67782 29.399C6.56028 29.834 6.74672 29.8527 10.1647 29.8527C12.8991 29.8527 13.1849 29.8402 13.3838 29.7408C14.0487 29.4114 14.0487 28.4295 13.3838 28.1002C13.1849 28.0007 12.8991 27.9883 10.1647 27.9883C7.34952 27.9883 7.14444 27.9821 6.82129 27.864C6.15634 27.6341 5.62811 27.0934 5.42303 26.4285C5.31117 26.0618 5.30495 25.689 5.30495 15C5.30495 4.31111 5.31117 3.93824 5.42303 3.57159C5.56596 3.11793 5.84561 2.72642 6.26198 2.42191C6.72807 2.08011 7.09473 1.99311 8.05797 2.02418C9.25115 2.05525 9.40652 2.17333 9.62402 3.28572C9.81667 4.28004 10.3387 5.02578 11.1217 5.41729C11.6997 5.70316 11.9917 5.74044 13.8809 5.74044C15.8137 5.74044 16.0747 5.70937 16.6961 5.38C17.4543 4.98849 17.9452 4.28004 18.1379 3.28572C18.2746 2.60213 18.3927 2.34733 18.6599 2.17954C18.865 2.05525 18.9582 2.04282 19.8469 2.04282C20.779 2.04282 20.8225 2.04904 21.1643 2.21683C21.6242 2.44055 22.0281 2.84449 22.2519 3.30437L22.4259 3.65859L22.4569 9.07763C22.488 14.4345 22.488 14.4967 22.6185 14.6707C22.8174 14.9379 23.1219 15.0746 23.4699 15.0435C23.8241 15.0125 24.0603 14.8571 24.2094 14.5588C24.3151 14.3599 24.3213 13.9746 24.3213 9.1087C24.3213 3.22358 24.3275 3.33544 23.8738 2.39083C23.3643 1.32194 22.2705 0.489202 21.0773 0.246838C20.3813 0.103903 7.31845 0.110117 6.64107 0.246838ZM16.491 2.06147C16.491 2.09254 16.4351 2.37841 16.3667 2.70156C16.23 3.32922 16.1306 3.51566 15.8074 3.73317C15.6086 3.86988 15.5651 3.8761 13.8996 3.8761C12.0352 3.8761 11.9917 3.86988 11.6872 3.50323C11.5816 3.37894 11.4946 3.15522 11.4262 2.83828C11.3703 2.57106 11.3019 2.27897 11.2709 2.17954L11.2149 2.01175H13.8561C15.3041 2.01175 16.491 2.03661 16.491 2.06147Z" fill="currentColor"/>
<path d="M20.3195 16.8955C19.2631 17.1876 18.3992 18.0017 18.0388 19.0395C17.9269 19.3627 17.8959 19.6237 17.871 20.357C17.8461 21.1649 17.8337 21.2767 17.7405 21.2767C17.6846 21.2767 17.4422 21.3699 17.2061 21.488C16.684 21.7366 16.249 22.1778 16.0067 22.6936L15.8389 23.0478V25.5336V28.0194L16.0439 28.4358C16.2987 28.9578 16.8394 29.4736 17.3428 29.6787C17.7032 29.8216 17.7094 29.8216 20.9907 29.8403C23.0787 29.8527 24.39 29.8341 24.5827 29.7968C25.5521 29.5855 26.3041 28.8149 26.4967 27.833C26.5464 27.5782 26.5589 26.7641 26.5464 25.2851L26.5278 23.11L26.3289 22.6936C26.2233 22.4637 26.0182 22.153 25.8815 22.0038C25.6143 21.7179 25.055 21.3824 24.7194 21.314L24.5267 21.2705L24.4894 20.388C24.4459 19.3627 24.3279 18.8841 23.9612 18.3186C23.4951 17.604 22.8115 17.1068 21.9912 16.8955C21.5438 16.7836 20.7359 16.7836 20.3195 16.8955ZM21.8793 18.8531C22.4511 19.1824 22.6437 19.6174 22.6437 20.6056V21.2146H21.1833H19.7229V20.5123C19.7229 19.9157 19.7416 19.7728 19.8721 19.5056C20.1269 18.9525 20.5681 18.6728 21.1833 18.6666C21.4878 18.6666 21.6183 18.7039 21.8793 18.8531ZM24.4832 23.2902L24.6945 23.5015V25.5336V27.5658L24.4832 27.7771L24.2719 27.9884H21.2206C17.958 27.9884 17.8959 27.9821 17.7343 27.6839C17.6473 27.5161 17.6473 23.5512 17.7343 23.3896C17.8959 23.0851 17.9331 23.0851 21.202 23.0789H24.2719L24.4832 23.2902Z" fill="currentColor"/>
</symbol><symbol viewBox="0 0 30 30" fill="none" id="IconPasswordVisible" xmlns="http://www.w3.org/2000/svg">
<path d="M4.61133 2.70117C4.21875 2.90625 4.02539 3.38086 4.16016 3.82617C4.21875 4.03125 4.54688 4.39453 6.27539 6.12891L8.32617 8.18555L7.57031 8.66016C5.23242 10.1309 3.19336 11.9063 1.48828 13.9453C0.966797 14.5664 0.9375 14.625 0.9375 15.0176C0.9375 15.2637 0.972656 15.3867 1.08984 15.5625C1.62891 16.3594 3.5332 18.3223 4.77539 19.3594C8.2207 22.2363 11.6074 23.6719 14.918 23.6719C16.998 23.666 19.0195 23.1738 20.959 22.2012L21.8789 21.7383L23.9062 23.7539C25.6875 25.5352 25.957 25.7813 26.1797 25.8398C26.6484 25.9629 27.0996 25.7637 27.2988 25.3477C27.3691 25.2129 27.4219 25.043 27.4219 24.9785C27.4219 24.5215 27.832 24.9434 16.5 13.5996C10.0781 7.17188 5.57812 2.70703 5.4668 2.66016C5.20312 2.54883 4.875 2.56055 4.61133 2.70117ZM11.8066 12.3223C11.4375 12.7266 11.1387 13.2773 10.9512 13.8867C10.7754 14.4551 10.7578 15.5215 10.9219 16.1133C11.3145 17.5605 12.4336 18.6797 13.8867 19.0781C14.4082 19.2188 15.4805 19.2246 15.9961 19.084C16.5703 18.9316 17.2734 18.5625 17.6719 18.1992L18.0293 17.877L19.2188 19.0723C19.875 19.7285 20.4023 20.2793 20.3906 20.291C20.373 20.3086 20.1387 20.4316 19.8691 20.5664C17.8652 21.5684 15.4277 21.9668 13.418 21.627C10.9043 21.1934 8.29102 19.8105 5.6543 17.5195C5.03906 16.9863 3.16406 15.0938 3.16406 15.0117C3.16406 14.918 4.52344 13.4824 5.16797 12.9082C6.42773 11.7715 7.51172 10.9688 8.90625 10.125L9.75586 9.60938L10.9395 10.793L12.123 11.9707L11.8066 12.3223ZM16.4766 16.6582C16.3887 16.7461 16.1484 16.9043 15.9375 17.0098C15.5918 17.1797 15.5098 17.1973 15 17.1973C14.5195 17.1973 14.3965 17.1738 14.1094 17.0391C13.6406 16.8223 13.2188 16.4121 12.9902 15.9434C12.8203 15.5918 12.8027 15.5098 12.8027 15C12.8027 14.5254 12.8262 14.3965 12.9551 14.1211C13.0371 13.9395 13.1953 13.6934 13.3008 13.5703L13.4941 13.3535L15.0645 14.918L16.6406 16.4883L16.4766 16.6582Z" fill="currentColor"/>
<path d="M13.5054 6.39258C13.312 6.42188 13.0132 6.47461 12.8433 6.50977C11.9058 6.70312 11.73 7.91016 12.5855 8.32617C12.8374 8.44922 12.8491 8.44922 13.5405 8.35547C16.98 7.86328 20.4312 9.15234 24.1343 12.293C24.8257 12.8789 26.8355 14.8945 26.8355 15C26.8355 15.0996 24.9312 17.0156 24.2573 17.5898C23.3784 18.3457 23.2319 18.668 23.5132 19.2188C23.689 19.5703 23.9585 19.7461 24.3276 19.7461C24.7026 19.7461 24.8433 19.6641 25.5933 19.0312C26.7066 18.0762 28.7339 15.9316 28.9976 15.4277C29.0327 15.3574 29.062 15.1582 29.062 14.9824C29.062 14.7363 29.0269 14.6133 28.9097 14.4375C28.6108 13.9922 27.7437 13.0254 26.8355 12.1289C23.7593 9.07031 20.4019 7.11914 17.1499 6.49805C16.6284 6.39844 16.2241 6.36914 15.1753 6.35156C14.4487 6.3457 13.6987 6.36328 13.5054 6.39258Z" fill="currentColor"/>
</symbol><symbol viewBox="0 0 30 30" fill="none" id="IconPhone" xmlns="http://www.w3.org/2000/svg">
<path d="M6.54507 1.08984C5.69546 1.27148 5.23257 1.55859 4.25991 2.51367C3.07046 3.67383 2.4435 4.50586 1.89858 5.64844C1.18374 7.1543 0.890769 8.71875 1.04311 10.2656C1.27163 12.5566 2.08022 15.1055 3.28725 17.3145C5.60757 21.5742 9.70913 25.4297 13.9806 27.3574C15.5158 28.0488 17.0451 28.5234 18.6798 28.8105C19.4298 28.9395 19.7697 28.9688 20.5373 28.9688C21.6447 28.9629 22.2833 28.8633 23.2677 28.5352C24.8732 28.002 26.0041 27.252 27.4865 25.7402C28.2775 24.9375 28.5939 24.4805 28.8107 23.8242C28.9396 23.4199 28.9689 23.25 28.9689 22.6758C28.9689 21.8379 28.799 21.2578 28.3595 20.6133C27.9787 20.0391 25.3654 17.4492 24.8732 17.1562C24.2873 16.8047 23.8478 16.6816 23.0802 16.6523C22.2833 16.623 21.879 16.7051 21.2111 17.0332C20.8185 17.2207 20.631 17.3848 19.4826 18.5156C18.7736 19.2188 18.1408 19.8047 18.0705 19.8281C17.9415 19.8691 16.9806 19.5117 16.3068 19.166C13.8634 17.9355 11.9943 16.0488 10.8107 13.623C10.3009 12.5801 10.1193 12.041 10.2013 11.877C10.2365 11.8066 10.8165 11.1914 11.4845 10.5176C12.8205 9.16406 13.0197 8.88281 13.2482 8.05664C13.3537 7.66406 13.3712 7.48828 13.3478 6.91406C13.3126 6.14648 13.1896 5.70117 12.8439 5.12695C12.5919 4.70508 10.0548 2.10938 9.51577 1.72266C8.63686 1.08984 7.58218 0.867188 6.54507 1.08984ZM8.15639 2.94727C8.39663 3.06445 8.79507 3.43359 9.87905 4.52344C10.758 5.40234 11.3439 6.04102 11.4201 6.19922C11.6955 6.75 11.6955 7.38281 11.4142 7.96289C11.3263 8.14453 10.8634 8.66016 10.008 9.52734C8.47866 11.0801 8.4728 11.0977 8.4728 12.041C8.4728 12.6738 8.4728 12.6973 8.74819 13.3477C10.3068 17.1094 12.8908 19.6934 16.6525 21.252C17.3029 21.5215 17.3263 21.5273 17.9591 21.5332C18.8849 21.5332 18.9552 21.4922 20.4787 19.9863C21.9611 18.5156 22.0958 18.4277 22.881 18.4277C23.7658 18.4277 23.7775 18.4336 25.4357 20.0801C27.1408 21.7734 27.2169 21.8789 27.2169 22.6758C27.2169 23.4316 27.0998 23.625 25.9748 24.7324C24.7443 25.9395 23.8947 26.4961 22.6818 26.8945C21.1701 27.3867 19.7697 27.3457 17.4728 26.748C14.3087 25.916 11.2794 24.0996 8.58999 21.4102C5.36147 18.1816 3.40444 14.4727 2.84194 10.5352C2.58413 8.70703 2.96499 7.05469 4.03139 5.44922C4.3771 4.92773 5.95327 3.25781 6.31655 3.03516C6.84389 2.71289 7.59975 2.67188 8.15639 2.94727Z" fill="currentColor"/>
</symbol><symbol viewBox="0 0 30 30" fill="none" id="IconSuccess" xmlns="http://www.w3.org/2000/svg">
<path d="M18.8965 11.8945L10.9863 19.8047L7.08984 15.9082C3.43359 12.252 3.18164 12.0117 2.98828 12.0117C2.80078 12.0117 2.67188 12.123 1.39453 13.4062C0.0410156 14.7539 0 14.8066 0 15.0293C0 15.2578 0.0527344 15.3164 5.37891 20.6367C10.7051 25.9688 10.752 26.0156 10.9863 26.0156C11.2207 26.0156 11.2676 25.9688 20.6074 16.623C29.9473 7.2832 30 7.23633 30 7.00195C30 6.77344 29.959 6.72656 28.6113 5.37891C27.3223 4.08984 27.2051 3.98438 27.0117 3.98438C26.8184 3.98438 26.3906 4.40039 18.8965 11.8945Z" fill="currentColor"/>
</symbol><symbol viewBox="0 0 30 30" fill="none" id="IconTruckAdd" xmlns="http://www.w3.org/2000/svg">
<g clip-path="url(#qclip0_2123_4001)">
<path d="M0.427734 5.13867C0.357422 5.15039 0.228516 5.24414 0.146484 5.33789L0 5.51953V13.4238V21.3281L0.169922 21.5156L0.339844 21.709L1.51172 21.7266L2.68359 21.7441L2.75977 22.0488C2.99414 23.0332 3.70898 23.9238 4.68164 24.4277C5.23828 24.7148 5.75977 24.8438 6.41602 24.8438C7.00781 24.8438 7.47656 24.7324 8.0625 24.4512C8.9707 24.0234 9.81445 22.9922 10.0312 22.043L10.1074 21.7383H14.6016H19.0957L19.1602 21.9844C19.3242 22.6055 19.6582 23.2383 20.0625 23.666C20.9707 24.6387 22.4473 25.0605 23.7539 24.7266C25.0664 24.3926 26.1211 23.3555 26.4434 22.084L26.5254 21.7676L28.0898 21.7383L29.6602 21.709L29.8301 21.5156L30.0059 21.3223L29.9883 18.4688C29.9707 15.6387 29.9707 15.6094 29.8359 15.2812C29.5957 14.6953 29.2676 14.2793 28.3887 13.4648L27.5449 12.6855L26.4727 11.0449C25.2891 9.22852 24.8437 8.70703 24.2461 8.41992C23.6074 8.11523 23.3789 8.08594 21.5859 8.08594H19.9277L19.8867 7.80469C19.752 6.86719 19.084 5.91211 18.2754 5.50195C17.4668 5.09766 18.2578 5.13281 8.96484 5.12109C4.3418 5.11523 0.498047 5.12695 0.427734 5.13867ZM17.4609 6.56836C17.9297 6.78516 18.1934 7.04297 18.4102 7.48828L18.6035 7.88086L18.6328 10.7637L18.6621 13.6523L18.8262 13.8105L18.9844 13.9746L23.0215 13.9922L27.0527 14.0039L27.7266 14.666C28.7402 15.6504 28.6758 15.4277 28.6992 18.1758L28.7168 20.4492H27.6328H26.5488L26.4551 20.127C25.9687 18.4336 24.5391 17.3438 22.8223 17.3438C21.0762 17.3438 19.5879 18.5039 19.1602 20.1973L19.0957 20.4492H14.6016H10.1074L10.0312 20.1445C9.79687 19.1484 9.03516 18.2051 8.07422 17.7188C6.88477 17.1152 5.25586 17.25 4.20703 18.041C3.46875 18.5859 2.95898 19.3242 2.75391 20.1445L2.67187 20.4492H1.98047H1.28906V13.418V6.38672L9.2168 6.39844L17.1387 6.41602L17.4609 6.56836ZM23.502 9.52734C23.959 9.74414 24.1992 10.0137 25.0488 11.3086C25.5059 12 25.8984 12.6035 25.9219 12.6387C25.957 12.6973 25.3418 12.7148 22.9453 12.7148H19.9219V11.0391V9.36914L21.5801 9.38672C23.1152 9.4043 23.25 9.41602 23.502 9.52734ZM7.19531 18.7734C7.59375 18.9199 8.07422 19.2715 8.33203 19.6055C9.45703 21.0996 8.61328 23.1738 6.75 23.502C5.48437 23.7246 4.21289 22.7871 3.97852 21.4629C3.76758 20.2734 4.59961 19.0254 5.80078 18.7148C6.1875 18.6211 6.83789 18.6445 7.19531 18.7734ZM23.6895 18.8086C24.3281 19.0488 24.873 19.6172 25.1367 20.3203C25.3301 20.8301 25.2891 21.5684 25.0312 22.1074C24.5742 23.0918 23.4902 23.6777 22.4531 23.5078C20.6953 23.2148 19.8164 21.2695 20.7715 19.7754C21.3926 18.7969 22.5996 18.3984 23.6895 18.8086Z" fill="currentColor"/>
</g>
<defs>
<clipPath id="qclip0_2123_4001">
<rect width="30" height="30" fill="currentColor"/>
</clipPath>
</defs>
</symbol><symbol viewBox="0 0 30 30" fill="none" id="IconTrucks" xmlns="http://www.w3.org/2000/svg">
<g clip-path="url(#rclip0_2123_4010)">
<path d="M0.427734 5.13867C0.357422 5.15039 0.228516 5.24414 0.146484 5.33789L0 5.51953V13.4238V21.3281L0.169922 21.5156L0.339844 21.709L1.51172 21.7266L2.68359 21.7441L2.75977 22.0488C2.99414 23.0332 3.70898 23.9238 4.68164 24.4277C5.23828 24.7148 5.75977 24.8438 6.41602 24.8438C7.00781 24.8438 7.47656 24.7324 8.0625 24.4512C8.9707 24.0234 9.81445 22.9922 10.0312 22.043L10.1074 21.7383H14.6016H19.0957L19.1602 21.9844C19.3242 22.6055 19.6582 23.2383 20.0625 23.666C20.9707 24.6387 22.4473 25.0605 23.7539 24.7266C25.0664 24.3926 26.1211 23.3555 26.4434 22.084L26.5254 21.7676L28.0898 21.7383L29.6602 21.709L29.8301 21.5156L30.0059 21.3223L29.9883 18.4688C29.9707 15.6387 29.9707 15.6094 29.8359 15.2812C29.6016 14.707 29.2734 14.2852 28.4355 13.5059L27.627 12.75L26.4434 10.9863C25.1777 9.08789 24.8613 8.72461 24.2461 8.42578C23.6133 8.11523 23.3789 8.08594 21.5859 8.08594H19.9277L19.8867 7.80469C19.752 6.86719 19.084 5.91211 18.2754 5.50195C17.4668 5.09766 18.2578 5.13281 8.96484 5.12109C4.3418 5.11523 0.498047 5.12695 0.427734 5.13867ZM17.4609 6.56836C17.9297 6.78516 18.1934 7.04297 18.4102 7.48828L18.6035 7.88086L18.6328 10.7637L18.6621 13.6523L18.8262 13.8105L18.9844 13.9746L23.0215 13.9922L27.0527 14.0039L27.7266 14.666C28.7402 15.6504 28.6758 15.4277 28.6992 18.1758L28.7168 20.4492H27.6328H26.5488L26.4551 20.127C25.9687 18.4336 24.5391 17.3438 22.8223 17.3438C21.0762 17.3438 19.5879 18.5039 19.1602 20.1973L19.0957 20.4492H14.6016H10.1074L10.0312 20.1445C9.79687 19.1484 9.03516 18.2051 8.07422 17.7188C6.88477 17.1152 5.25586 17.25 4.20703 18.041C3.46875 18.5859 2.95898 19.3242 2.75391 20.1445L2.67187 20.4492H1.98047H1.28906V13.418V6.38672L9.2168 6.39844L17.1387 6.41602L17.4609 6.56836ZM23.5547 9.5625C24.0059 9.78516 24.1875 9.99609 25.1543 11.4375L26.0039 12.7148H22.9629H19.9219V11.0391V9.36914L21.5801 9.38672L23.2324 9.4043L23.5547 9.5625ZM7.19531 18.7734C7.59375 18.9199 8.07422 19.2715 8.33203 19.6055C9.45703 21.0996 8.61328 23.1738 6.75 23.502C5.48437 23.7246 4.21289 22.7871 3.97852 21.4629C3.76758 20.2734 4.59961 19.0254 5.80078 18.7148C6.1875 18.6211 6.83789 18.6445 7.19531 18.7734ZM23.6895 18.8086C24.3281 19.0488 24.873 19.6172 25.1367 20.3203C25.3301 20.8301 25.2891 21.5684 25.0312 22.1074C24.5742 23.0918 23.4902 23.6777 22.4531 23.5078C20.6953 23.2148 19.8164 21.2695 20.7715 19.7754C21.3926 18.7969 22.5996 18.3984 23.6895 18.8086Z" fill="currentColor"/>
<path d="M11.9175 11.2558L9.32768 13.8398L7.90385 12.3984L6.47416 10.957H6.19877C5.70073 10.957 5.39018 11.3906 5.57768 11.8242C5.6187 11.9238 6.40971 12.7675 7.32963 13.6992C9.09331 15.4804 9.16948 15.539 9.53862 15.4043C9.78471 15.3164 15.3394 9.73825 15.4156 9.50387C15.5562 9.07614 15.2456 8.67184 14.771 8.67184H14.5074L11.9175 11.2558Z" fill="currentColor"/>
</g>
<defs>
<clipPath id="rclip0_2123_4010">
<rect width="30" height="30" fill="currentColor"/>
</clipPath>
</defs>
</symbol><symbol viewBox="0 0 30 30" fill="none" id="IconUpload" xmlns="http://www.w3.org/2000/svg">
<path d="M5.78906 0.140608C4.66406 0.539045 3.74414 1.47069 3.32812 2.6367L3.19336 3.01756V14.9414V26.8652L3.32812 27.2461C3.75 28.4238 4.68164 29.3555 5.85937 29.7773L6.24023 29.9121L14.9062 29.9297C24.5801 29.9473 23.8535 29.9765 24.7852 29.5254C25.1895 29.3262 25.377 29.1855 25.7812 28.7754C26.3027 28.2539 26.543 27.873 26.7891 27.1875L26.9238 26.8066L26.9414 17.5195C26.9531 8.54295 26.9531 8.22655 26.8418 8.05663C26.7832 7.95702 25.043 6.10545 22.9746 3.93748L19.2129 -1.71661e-05H12.6973H6.18164L5.78906 0.140608ZM18.0586 3.99608C18.0762 6.13475 18.0996 6.63866 18.1699 6.85545C18.5449 7.9453 19.2832 8.68944 20.332 9.03514C20.6895 9.15233 20.8594 9.16405 23.0742 9.18748L25.4297 9.21092V17.8066C25.4297 26.3906 25.4297 26.4023 25.3066 26.7656C25.0137 27.6269 24.252 28.2715 23.3379 28.418C22.8809 28.4941 7.23633 28.4941 6.77344 28.418C6.03516 28.3008 5.29102 27.7851 4.97461 27.1816C4.64062 26.5488 4.66406 27.416 4.64062 15.2051C4.63477 8.09178 4.64648 3.8203 4.68164 3.58592C4.8457 2.51951 5.68945 1.64061 6.7207 1.46483C6.87305 1.44139 9.48633 1.41795 12.5215 1.41209L18.041 1.40623L18.0586 3.99608ZM21.8613 4.99803C23.0977 6.29881 24.1758 7.43553 24.2578 7.52342L24.4043 7.68163L22.6465 7.66405L20.8887 7.64647L20.5547 7.48241C20.1387 7.27733 19.8516 6.96678 19.6934 6.53905C19.5762 6.2285 19.5703 6.09959 19.5703 4.42381C19.5703 3.43944 19.582 2.6367 19.5937 2.6367C19.6055 2.6367 20.6309 3.69725 21.8613 4.99803Z" fill="currentColor"/>
<path d="M14.666 10.0195C14.3144 10.2304 14.3261 10.0488 14.2968 14.4257L14.2675 18.4452L12.8027 16.8632C12 15.996 11.2675 15.246 11.1797 15.1991C10.9687 15.0878 10.5468 15.0937 10.3828 15.2109C10.1074 15.4042 9.99021 15.9199 10.1543 16.207C10.289 16.4472 14.584 21.0116 14.7363 21.082C14.9531 21.1816 15.1758 21.1699 15.3925 21.0468C15.498 20.9941 16.5703 19.8866 17.7773 18.5859C20.1504 16.0312 20.1328 16.0663 19.9863 15.58C19.9394 15.4218 19.8515 15.3105 19.7285 15.2343C19.5293 15.1113 19.1074 15.0761 18.9316 15.1757C18.873 15.205 18.1523 15.9491 17.3379 16.8281L15.8496 18.4218L15.8203 14.4081C15.791 10.5937 15.7851 10.3945 15.6797 10.2363C15.457 9.90227 15.0117 9.80852 14.666 10.0195Z" fill="currentColor"/>
<path d="M8.88281 23.4961C8.58984 23.5898 8.32031 23.9238 8.32031 24.1992C8.32031 24.416 8.50781 24.7324 8.69531 24.8496C8.87109 24.9551 9.11133 24.9609 15.0527 24.9609C21.0879 24.9609 21.2285 24.9609 21.4102 24.8438C21.8613 24.5684 21.8848 23.9531 21.4629 23.6309L21.252 23.4668L15.1523 23.4551C11.7949 23.4492 8.97656 23.4668 8.88281 23.4961Z" fill="currentColor"/>
</symbol><symbol viewBox="0 0 30 30" fill="none" id="IconUser" xmlns="http://www.w3.org/2000/svg">
<path d="M13.6875 0.0937328C11.08 0.580061 8.90035 2.48436 8.08589 4.98631C7.82222 5.78905 7.73433 6.4453 7.73433 7.63475V8.67186L7.51754 8.87108C7.20699 9.15233 6.9316 9.6328 6.81441 10.1015C6.73238 10.4355 6.72652 10.5762 6.77925 10.9277C6.93746 12.0176 7.66988 12.8086 8.73043 13.0312C8.85347 13.0547 8.91793 13.1484 9.07027 13.5176C9.43941 14.4199 9.62105 14.6601 11.0332 16.0957C12.873 17.9531 12.8203 17.9297 15 17.9297C17.1796 17.9297 17.1269 17.9531 18.9668 16.0957C20.3789 14.6601 20.5605 14.4199 20.9296 13.5176C21.082 13.1484 21.1464 13.0547 21.2695 13.0312C22.3125 12.8086 23.039 12.0469 23.2148 10.9805C23.3378 10.2656 23.0918 9.50975 22.5703 8.96483L22.2714 8.65428L22.2539 6.91991L22.2363 5.18553L22.0546 4.80467C21.955 4.59373 21.7851 4.31834 21.6738 4.18944C21.4043 3.88475 20.8652 3.54491 20.5136 3.45702C20.25 3.39256 20.2148 3.36327 20.1269 3.14647C19.8515 2.44334 19.2304 1.62889 18.5742 1.11326C18.0586 0.703108 17.5957 0.451155 16.9336 0.228498C16.3945 0.0409985 16.3476 0.0351391 15.2636 0.017561C14.4668 0.0117016 14.0156 0.0292797 13.6875 0.0937328ZM15.9023 1.05467C16.8339 1.18944 17.6836 1.62889 18.3281 2.31444C18.7851 2.7949 19.0722 3.26952 19.3066 3.93748L19.4707 4.39452H19.7988C20.2207 4.39452 20.6543 4.59373 20.9062 4.89842C21.2226 5.27928 21.2695 5.54881 21.2695 6.97264V8.23827L20.9062 8.21483C20.0449 8.16209 19.3066 7.85741 18.7968 7.34764C18.6093 7.16014 18.2871 6.70897 18.0175 6.26952C17.7656 5.84764 17.5488 5.5078 17.5312 5.5078C17.5195 5.5078 17.2793 5.71287 16.998 5.97069C15.7793 7.07811 14.5839 7.72264 13.1367 8.03319C12.6679 8.1328 12.2988 8.15623 11.0156 8.17967C10.1601 8.19139 9.29879 8.21483 9.09957 8.22069L8.73043 8.23827V7.64647C8.73043 6.12303 9.06441 4.92186 9.81441 3.77928C10.1308 3.29295 11.0742 2.36717 11.6015 2.02147C12.8613 1.20115 14.4492 0.849592 15.9023 1.05467ZM17.4316 7.30662C17.8535 7.97459 18.3808 8.46092 19.0195 8.77733C19.3828 8.95897 19.8515 9.12303 20.0976 9.15233L20.2441 9.16991V10.7812C20.2382 12.3574 20.2382 12.4043 20.0859 12.8496C19.8046 13.6875 19.5468 14.039 18.1992 15.3984C17.373 16.2305 16.8808 16.6875 16.6992 16.7754C16.4472 16.8984 16.3652 16.9043 15 16.9043C13.6347 16.9043 13.5527 16.8984 13.3007 16.7754C13.1191 16.6875 12.6269 16.2305 11.8007 15.3984C10.4531 14.039 10.1953 13.6875 9.91402 12.8496C9.76754 12.4101 9.76168 12.3281 9.73824 10.7988L9.7148 9.21092L11.291 9.18163C12.9433 9.15233 13.2656 9.11131 14.3261 8.78905C14.9589 8.59569 16.0839 8.01561 16.6992 7.56444C17.0039 7.33592 17.2734 7.15428 17.291 7.15428C17.3144 7.14842 17.3789 7.21873 17.4316 7.30662ZM8.67183 10.664V11.959L8.50191 11.8711C8.29097 11.7598 7.98043 11.4023 7.87496 11.1562C7.63472 10.5762 7.92183 9.74413 8.46675 9.4453C8.53121 9.41014 8.60152 9.37498 8.63082 9.37498C8.65425 9.37498 8.67183 9.95506 8.67183 10.664ZM21.5507 9.45702C22.0722 9.73241 22.3652 10.582 22.125 11.1562C22.0195 11.4023 21.7089 11.7598 21.498 11.8711L21.3281 11.959V10.664C21.3281 9.95506 21.3398 9.37498 21.3574 9.37498C21.3808 9.37498 21.4628 9.41014 21.5507 9.45702Z" fill="currentColor"/>
<path d="M10.6055 17.7129V18.0176L8.77734 18.627C6.39844 19.4121 5.90625 19.5996 5.47852 19.8516C4.18359 20.6309 3.31055 21.8027 2.9707 23.2324C2.91797 23.4551 2.64844 25.002 2.37305 26.6602C2.09766 28.3184 1.85742 29.748 1.83984 29.8418L1.80469 30H15H28.1953L28.1602 29.8418C28.1426 29.748 27.9023 28.3184 27.627 26.6602C27.3516 25.002 27.0879 23.4551 27.0293 23.2324C26.6719 21.6973 25.6406 20.4082 24.2051 19.6816C24.0234 19.5879 22.8691 19.1777 21.6387 18.7676L19.3945 18.0176V17.707V17.4023H18.8672H18.3398V17.8828C18.3398 18.2812 18.2812 18.6211 18.0059 19.7285C17.8184 20.4785 17.6543 21.0938 17.6367 21.0938C17.6191 21.0938 17.1855 20.5898 16.6816 19.9805L15.7559 18.8672H15H14.2441L13.3184 19.9805C12.8145 20.5898 12.3809 21.0938 12.3633 21.0938C12.3457 21.0938 12.1816 20.4785 11.9941 19.7285C11.7188 18.6211 11.6602 18.2812 11.6602 17.8828V17.4023H11.1328H10.6055V17.7129ZM11.2793 21.0938C11.5547 22.207 11.8008 23.168 11.8242 23.2266C11.8652 23.3262 11.9473 23.25 12.3984 22.7168C12.6855 22.3711 12.9316 22.0898 12.9492 22.0898C12.9668 22.0898 13.0957 22.2656 13.2363 22.4824L13.4941 22.875L13.0605 25.9277L12.6211 28.9746L9.97852 28.9922L7.33008 29.0039L7.35938 28.8164C7.38281 28.6465 7.71094 25.3535 7.74609 24.873L7.76367 24.6973L7.27148 24.6504C7.00781 24.6211 6.7793 24.6094 6.76758 24.6211C6.75 24.6387 6.32812 28.7402 6.32812 28.9102C6.32812 28.9922 6.16992 29.0039 4.6875 29.0039C3.58594 29.0039 3.04688 28.9863 3.04688 28.9453C3.04688 28.8105 3.87305 23.9062 3.96094 23.5254C4.01367 23.2969 4.17188 22.8691 4.31836 22.5645C4.54102 22.0957 4.6582 21.9316 5.12109 21.4746C5.46094 21.1289 5.79492 20.8594 6.04102 20.7188C6.33984 20.5547 10.7109 19.0254 10.7637 19.0664C10.7695 19.0723 10.998 19.9863 11.2793 21.0938ZM23.959 20.7188C24.2051 20.8594 24.5391 21.1348 24.8789 21.4746C25.3418 21.9316 25.459 22.0957 25.6816 22.5645C25.8281 22.8691 25.9863 23.2969 26.0391 23.5254C26.127 23.9062 26.9531 28.8105 26.9531 28.9453C26.9531 28.9863 26.4141 29.0039 25.3125 29.0039C23.7891 29.0039 23.6719 28.998 23.6719 28.8984C23.6719 28.8457 23.5781 27.8906 23.4668 26.7773C23.3555 25.6641 23.2617 24.7207 23.2617 24.6738C23.2617 24.6152 23.168 24.6035 22.7812 24.6387C22.5117 24.6621 22.2773 24.6914 22.2598 24.7031C22.2363 24.7148 22.4648 27.1758 22.6348 28.7578L22.6641 29.0039L20.0215 28.9922L17.3789 28.9746L16.9395 25.9277L16.5059 22.875L16.7637 22.4824C16.9043 22.2656 17.0391 22.0898 17.0566 22.0898C17.0801 22.0898 17.3262 22.3711 17.6074 22.7109C17.9707 23.1504 18.1348 23.3145 18.1641 23.2559C18.1875 23.209 18.4336 22.248 18.7207 21.1113L19.2305 19.0547L21.3984 19.7812C22.6758 20.209 23.7305 20.5957 23.959 20.7188ZM15.791 20.543L16.3594 21.2168L15.8965 21.9199L15.4336 22.6172L15.8848 25.7988C16.1367 27.5449 16.3418 28.9805 16.3477 28.9863C16.3477 28.998 15.7441 29.0039 15 29.0039C14.2617 29.0039 13.6523 28.998 13.6523 28.9863C13.6582 28.9805 13.8633 27.5449 14.1152 25.7988L14.5664 22.6172L14.1035 21.9199L13.6406 21.2168L14.209 20.543C14.748 19.8926 14.7891 19.8633 15 19.8633C15.2109 19.8633 15.252 19.8926 15.791 20.543Z" fill="currentColor"/>
</symbol><symbol viewBox="0 0 30 30" fill="none" id="IconUserInput" xmlns="http://www.w3.org/2000/svg">
<path d="M12.7147 1.0605C9.69128 1.40621 6.96667 3.64449 6.04089 6.53316C5.71862 7.52925 5.65417 7.96285 5.66003 9.11128C5.66589 10.5234 5.83581 11.3261 6.39245 12.5332C6.89636 13.6171 7.91589 14.8769 8.82409 15.539L9.18737 15.8027L8.77722 15.9316C8.17956 16.125 7.078 16.6933 6.47448 17.121C5.80651 17.5957 4.88073 18.5156 4.40026 19.1894C3.9198 19.8691 3.33386 21.0761 3.1112 21.8437C2.82409 22.8222 2.74206 23.5605 2.7655 24.9785L2.78308 26.2207L2.97058 26.6191C3.2987 27.3105 3.77917 27.7675 4.44128 28.0253C4.71667 28.1367 6.66784 28.4824 7.79284 28.6171C9.87292 28.875 13.16 29.0625 13.5878 28.9453C13.8866 28.8691 14.1561 28.5585 14.2089 28.2421C14.244 28.0488 14.2206 27.9433 14.1092 27.7324C13.8925 27.2988 13.787 27.2695 12.3807 27.2226C10.2479 27.1523 8.26745 26.9589 6.2987 26.625C4.96862 26.4023 4.79284 26.3378 4.59948 25.957C4.47644 25.7168 4.47644 23.8769 4.59948 23.1679C4.84558 21.7793 5.50183 20.4785 6.49792 19.4355C7.51745 18.3632 8.77722 17.6543 10.2538 17.332C10.8514 17.2031 10.9628 17.1972 13.7108 17.1972C16.4589 17.1972 16.5702 17.2031 17.162 17.332C17.8534 17.4843 18.6678 17.7832 19.1893 18.0761C19.7928 18.4101 20.1971 18.4043 20.537 18.0468C20.6776 17.9003 20.7128 17.8066 20.7303 17.496C20.7538 17.1503 20.7421 17.1152 20.5721 16.9218C20.3553 16.6757 19.6698 16.3066 18.8612 15.996L18.2811 15.7793L18.7206 15.4394C20.1503 14.3437 21.2167 12.621 21.6385 10.7226C21.8026 9.96089 21.8202 8.29683 21.662 7.55855C21.3046 5.91207 20.5956 4.56441 19.4823 3.42769C17.7128 1.623 15.2694 0.767534 12.7147 1.0605ZM14.7421 2.84175C15.4452 2.9648 15.9198 3.123 16.5819 3.46285C18.2284 4.3066 19.3592 5.73042 19.8749 7.59957C19.9803 7.98628 19.9979 8.2148 20.0038 9.08199C20.0038 10.0078 19.9862 10.1601 19.8514 10.6699C19.2069 13.0488 17.2616 14.8652 14.8827 15.3164C14.2675 15.4335 13.1542 15.4335 12.5389 15.3164C10.5467 14.9414 8.80065 13.5644 7.93347 11.6894C7.32409 10.3652 7.21276 8.65425 7.65808 7.23628C8.60144 4.21285 11.6659 2.31441 14.7421 2.84175Z" fill="currentColor"/>
<path d="M23.543 17.6015C23.3321 17.6777 23.0684 17.8007 22.9571 17.8711C22.629 18.0996 16.3477 24.3925 16.2305 24.6152C16.0723 24.9199 15.6797 27.2461 15.7208 27.6504C15.7852 28.2597 16.2833 28.8105 16.9044 28.9511C17.1973 29.0156 17.3379 29.0039 18.5274 28.8046C19.5294 28.6406 19.8868 28.5527 20.0977 28.4414C20.5079 28.2187 26.7012 21.9843 26.9122 21.5859C27.334 20.7832 27.3575 19.8164 26.9766 19.0019C26.795 18.6211 26.2676 18.041 25.9161 17.83C25.2422 17.4375 24.2754 17.3437 23.543 17.6015ZM24.9493 19.3183C25.2364 19.4531 25.4415 19.7578 25.4766 20.0918C25.5176 20.5254 25.418 20.7304 24.9317 21.2109L24.4922 21.6504L23.7598 20.9179L23.0274 20.1855L23.3379 19.875C24.0118 19.1836 24.3809 19.0546 24.9493 19.3183ZM22.5469 22.166L23.2618 22.8808L21.2286 24.9082L19.1895 26.9296L18.3809 27.0644C17.9356 27.1406 17.5547 27.1816 17.5372 27.164C17.5196 27.1464 17.5665 26.7597 17.6426 26.2968L17.7774 25.4589L19.7696 23.4492C20.8653 22.3476 21.7794 21.4453 21.7969 21.4453C21.8145 21.4453 22.1485 21.7675 22.5469 22.166Z" fill="currentColor"/>
</symbol></svg>