<svg width="200" height="60" viewBox="0 0 200 60" fill="none" xmlns="http://www.w3.org/2000/svg">
<mask id="mask0_2105_57" style="mask-type:luminance" maskUnits="userSpaceOnUse" x="0" y="0" width="71" height="60">
<path d="M70.2842 0H0V60H70.2842V0Z" fill="white"/>
</mask>
<g mask="url(#mask0_2105_57)">
<path d="M57.5231 14.4877V14.5968L35.27 27.5462L13.0225 14.5968V14.4877L29.8547 4.68958V14.1606H24.4793L35.27 20.8476L46.0662 14.1606H40.6909V4.68958L57.5231 14.4877Z" fill="#5BB318"/>
<path d="M36.2781 32.4596V55.0983L58.5312 42.1487V31.8569L43.2194 40.7711L36.2781 32.4596Z" fill="#428D09"/>
<path d="M12.0146 31.8571V42.1488L34.2621 55.0984V32.4598L27.3265 40.7712L12.0146 31.8571Z" fill="#428D09"/>
<path d="M4.61816 25.2099L26.8713 38.1593L34.2625 29.3026L12.015 16.3531L4.61816 25.2099Z" fill="#428D09"/>
<path d="M65.9224 25.2099L58.5312 16.3531L36.2781 29.3026L43.6749 38.1593L65.9224 25.2099Z" fill="#428D09"/>
</g>
<path d="M84.2377 0H83.2041V60H84.2377V0Z" fill="#D9D9D9"/>
<path d="M110.057 28.4347V20.7464H101.871V28.4347H98.8945V10.9043H101.871V18.0918H110.057V10.9043H113.034V28.4347H110.057ZM115.142 13.5589V10.9043H128.785V13.5589H123.452V28.4347H120.475V13.5589H115.142ZM130.015 13.5589V10.9043H143.659V13.5589H138.326V28.4347H135.349V13.5589H130.015ZM145.769 28.4347V10.9043H151.723C156.387 10.9043 158.421 12.9579 158.421 16.6893C158.421 20.1954 156.163 22.4744 151.723 22.4744H148.746V28.4347H145.769ZM151.723 13.5589H148.746V19.8198H151.723C154.08 19.8198 155.295 18.5926 155.295 16.6893C155.295 14.6859 154.179 13.5589 151.723 13.5589Z" fill="#101722"/>
<path d="M98.46 52.4348V42.2087H99.4729V51.4998H104.248V52.4348H98.46ZM108.443 52.5371C106.518 52.5371 105.259 51.2661 105.259 49.104V48.4612C105.259 46.3137 106.533 45.0282 108.443 45.0282C110.367 45.0282 111.626 46.2991 111.626 48.4612V49.104C111.626 51.2515 110.353 52.5371 108.443 52.5371ZM108.443 51.6313C109.745 51.6313 110.642 50.7256 110.642 49.104V48.4612C110.642 46.8543 109.731 45.9339 108.443 45.9339C107.141 45.9339 106.243 46.8397 106.243 48.4612V49.104C106.243 50.711 107.155 51.6313 108.443 51.6313ZM116.051 52.2449C114.373 52.2449 113.215 51.0762 113.215 48.9579V48.3151C113.215 46.2261 114.402 45.0282 116.051 45.0282C117.108 45.0282 117.961 45.4664 118.439 46.3284L118.555 45.1304H119.293V52.4348C119.293 54.3777 118.222 55.4588 116.37 55.4588C114.575 55.4588 113.721 54.5969 113.577 53.2383H114.532C114.676 54.071 115.154 54.5531 116.37 54.5531C117.686 54.5531 118.337 53.8957 118.337 52.4348V51.1054C117.845 51.8651 117.05 52.2449 116.051 52.2449ZM116.268 51.3391C117.455 51.3391 118.294 50.4772 118.337 49.0748V48.2129C118.294 46.7666 117.455 45.9339 116.268 45.9339C115.024 45.9339 114.199 46.7666 114.199 48.3151V48.9579C114.199 50.4918 115.038 51.3391 116.268 51.3391ZM121.891 52.4348V45.1304H122.846V52.4348H121.891ZM122.368 43.8449C121.992 43.8449 121.688 43.5381 121.688 43.1583C121.688 42.7784 121.992 42.4717 122.368 42.4717C122.745 42.4717 123.049 42.7784 123.049 43.1583C123.049 43.5381 122.745 43.8449 122.368 43.8449ZM127.764 52.5371C125.998 52.5371 125.159 51.6897 125.014 50.3165H125.998C126.143 51.2077 126.563 51.6313 127.764 51.6313C129.095 51.6313 129.529 51.1931 129.529 50.4626C129.529 48.5051 125.159 49.776 125.159 47.0296C125.159 45.8901 126.013 45.0282 127.764 45.0282C129.385 45.0282 130.224 45.8755 130.368 47.1026H129.385C129.24 46.3576 128.82 45.9339 127.764 45.9339C126.577 45.9339 126.143 46.3722 126.143 47.0296C126.143 48.8118 130.513 47.5409 130.513 50.4626C130.513 51.6751 129.659 52.5371 127.764 52.5371ZM131.674 46.007V45.1304H132.977V43.0852H133.932V45.1304H135.871V46.007H133.932V50.3896C133.932 51.1931 134.294 51.5583 135.003 51.5583H136.016V52.4348H134.887C133.642 52.4348 132.977 51.7628 132.977 50.5064V46.007H131.674ZM137.902 52.4348V45.1304H138.857V52.4348H137.902ZM138.379 43.8449C138.003 43.8449 137.699 43.5381 137.699 43.1583C137.699 42.7784 138.003 42.4717 138.379 42.4717C138.756 42.4717 139.059 42.7784 139.059 43.1583C139.059 43.5381 138.756 43.8449 138.379 43.8449ZM144.136 52.5371C142.284 52.5371 141.025 51.2661 141.025 49.104V48.4612C141.025 46.3137 142.299 45.0282 144.136 45.0282C145.743 45.0282 146.669 45.9631 146.958 47.1026H145.945C145.656 46.4306 145.164 45.9339 144.136 45.9339C142.906 45.9339 142.009 46.8397 142.009 48.4612V49.104C142.009 50.711 142.921 51.6313 144.136 51.6313C145.164 51.6313 145.656 51.1346 145.945 50.3165H146.958C146.669 51.6021 145.743 52.5371 144.136 52.5371ZM155.566 52.5371C153.323 52.5371 152.165 51.4268 152.021 49.2939H153.091C153.236 50.8571 154.003 51.5729 155.566 51.5729C157.273 51.5729 158.069 50.7694 158.069 49.7322C158.069 46.9273 152.165 48.432 152.165 44.7652C152.165 43.2605 153.323 42.1064 155.566 42.1064C157.751 42.1064 158.822 43.1875 158.966 45.0574H157.896C157.722 43.7426 157.085 43.0706 155.566 43.0706C153.945 43.0706 153.207 43.8157 153.207 44.7652C153.207 47.424 159.111 45.9193 159.111 49.7322C159.111 51.383 157.953 52.5371 155.566 52.5371ZM163.891 52.5371C161.996 52.5371 160.78 51.3099 160.78 49.104V48.4612C160.78 46.2699 162.01 45.0282 163.891 45.0282C165.773 45.0282 167.003 46.2699 167.003 48.4612V49.0602H161.764V49.104C161.764 50.784 162.604 51.6313 163.891 51.6313C165.093 51.6313 165.657 51.0616 165.946 50.3019H166.93C166.641 51.5583 165.671 52.5371 163.891 52.5371ZM163.891 45.9339C162.647 45.9339 161.851 46.752 161.764 48.2129H166.004C165.932 46.6936 165.107 45.9339 163.891 45.9339ZM169.029 52.4348V45.1304H169.767L169.883 46.3284C170.346 45.4957 171.185 45.0282 172.212 45.0282H172.936V45.9339H172.212C170.867 45.9339 170.027 46.752 169.984 47.9645V52.4348H169.029ZM176.762 52.4348L173.941 45.1304H175.011L177.356 51.3391L179.584 45.1304H180.597L177.92 52.4348H176.762ZM182.33 52.4348V45.1304H183.285V52.4348H182.33ZM182.807 43.8449C182.431 43.8449 182.127 43.5381 182.127 43.1583C182.127 42.7784 182.431 42.4717 182.807 42.4717C183.183 42.4717 183.487 42.7784 183.487 43.1583C183.487 43.5381 183.183 43.8449 182.807 43.8449ZM188.565 52.5371C186.713 52.5371 185.454 51.2661 185.454 49.104V48.4612C185.454 46.3137 186.727 45.0282 188.565 45.0282C190.171 45.0282 191.097 45.9631 191.387 47.1026H190.374C190.084 46.4306 189.592 45.9339 188.565 45.9339C187.335 45.9339 186.438 46.8397 186.438 48.4612V49.104C186.438 50.711 187.349 51.6313 188.565 51.6313C189.592 51.6313 190.084 51.1346 190.374 50.3165H191.387C191.097 51.6021 190.171 52.5371 188.565 52.5371ZM195.87 52.5371C193.975 52.5371 192.759 51.3099 192.759 49.104V48.4612C192.759 46.2699 193.989 45.0282 195.87 45.0282C197.751 45.0282 198.981 46.2699 198.981 48.4612V49.0602H193.743V49.104C193.743 50.784 194.582 51.6313 195.87 51.6313C197.071 51.6313 197.636 51.0616 197.925 50.3019H198.909C198.62 51.5583 197.65 52.5371 195.87 52.5371ZM195.87 45.9339C194.626 45.9339 193.83 46.752 193.743 48.2129H197.983C197.911 46.6936 197.086 45.9339 195.87 45.9339Z" fill="#101722"/>
</svg>
