<svg width="218" height="65" viewBox="0 0 218 65" fill="none" xmlns="http://www.w3.org/2000/svg">
<mask id="mask0_2175_388" style="mask-type:luminance" maskUnits="userSpaceOnUse" x="0" y="0" width="77" height="65">
<path d="M76.6098 0H0V65H76.6098V0Z" fill="white"/>
</mask>
<g mask="url(#mask0_2175_388)">
<path d="M62.701 15.6948V15.8129L38.4451 29.8414L14.1953 15.8129V15.6948L32.5425 5.08008V15.3403H26.6833L38.4451 22.5846L50.213 15.3403H44.3539V5.08008L62.701 15.6948Z" fill="#5BB318"/>
<path d="M39.5439 35.1647V59.6898L63.7999 45.6611V34.5117L47.11 44.1687L39.5439 35.1647Z" fill="#428D09"/>
<path d="M13.0967 34.5112V45.6607L37.3464 59.6893V35.1642L29.7866 44.1683L13.0967 34.5112Z" fill="#428D09"/>
<path d="M5.03418 27.3107L29.2901 41.3392L37.3465 31.7443L13.0967 17.7158L5.03418 27.3107Z" fill="#428D09"/>
<path d="M71.8563 27.3107L63.7999 17.7158L39.5439 31.7443L47.6065 41.3392L71.8563 27.3107Z" fill="#428D09"/>
</g>
<path d="M91.819 0H90.6924V65H91.819V0Z" fill="white"/>
<path d="M119.962 30.8043V22.4753H111.04V30.8043H107.795V11.813H111.04V19.5994H119.962V11.813H123.207V30.8043H119.962ZM125.504 14.6888V11.813H140.376V14.6888H134.562V30.8043H131.318V14.6888H125.504ZM141.717 14.6888V11.813H156.588V14.6888H150.775V30.8043H147.53V14.6888H141.717ZM158.889 30.8043V11.813H165.378C170.461 11.813 172.678 14.0377 172.678 18.0801C172.678 21.8784 170.218 24.3473 165.378 24.3473H162.133V30.8043H158.889ZM165.378 14.6888H162.133V21.4714H165.378C167.947 21.4714 169.271 20.142 169.271 18.0801C169.271 15.9097 168.055 14.6888 165.378 14.6888Z" fill="white"/>
<path d="M107.321 56.8043V45.726H108.425V55.7914H113.63V56.8043H107.321ZM118.203 56.9151C116.105 56.9151 114.733 55.5382 114.733 53.1959V52.4996C114.733 50.1731 116.121 48.7805 118.203 48.7805C120.3 48.7805 121.673 50.1573 121.673 52.4996V53.1959C121.673 55.5224 120.285 56.9151 118.203 56.9151ZM118.203 55.9338C119.622 55.9338 120.6 54.9526 120.6 53.1959V52.4996C120.6 50.7587 119.606 49.7617 118.203 49.7617C116.783 49.7617 115.805 50.7429 115.805 52.4996V53.1959C115.805 54.9368 116.799 55.9338 118.203 55.9338ZM126.496 56.5985C124.666 56.5985 123.404 55.3324 123.404 53.0377V52.3413C123.404 50.0782 124.698 48.7805 126.496 48.7805C127.647 48.7805 128.578 49.2552 129.098 50.189L129.224 48.8912H130.029V56.8043C130.029 58.9091 128.862 60.0803 126.843 60.0803C124.887 60.0803 123.956 59.1465 123.799 57.6747H124.84C124.997 58.5768 125.518 59.0991 126.843 59.0991C128.278 59.0991 128.988 58.3869 128.988 56.8043V55.3641C128.452 56.1871 127.584 56.5985 126.496 56.5985ZM126.732 55.6173C128.026 55.6173 128.94 54.6836 128.988 53.1643V52.2305C128.94 50.6638 128.026 49.7617 126.732 49.7617C125.376 49.7617 124.477 50.6638 124.477 52.3413V53.0377C124.477 54.6994 125.392 55.6173 126.732 55.6173ZM132.861 56.8043V48.8912H133.902V56.8043H132.861ZM133.382 47.4985C132.971 47.4985 132.64 47.1662 132.64 46.7547C132.64 46.3432 132.971 46.0109 133.382 46.0109C133.792 46.0109 134.123 46.3432 134.123 46.7547C134.123 47.1662 133.792 47.4985 133.382 47.4985ZM139.263 56.9151C137.338 56.9151 136.423 55.9971 136.266 54.5095H137.338C137.496 55.4749 137.953 55.9338 139.263 55.9338C140.714 55.9338 141.187 55.4591 141.187 54.6678C141.187 52.5471 136.423 53.9239 136.423 50.9486C136.423 49.7142 137.354 48.7805 139.263 48.7805C141.029 48.7805 141.944 49.6984 142.102 51.0278H141.029C140.871 50.2206 140.414 49.7617 139.263 49.7617C137.969 49.7617 137.496 50.2365 137.496 50.9486C137.496 52.8794 142.259 51.5025 142.259 54.6678C142.259 55.9813 141.329 56.9151 139.263 56.9151ZM143.525 49.8408V48.8912H144.945V46.6756H145.986V48.8912H148.099V49.8408H145.986V54.5886C145.986 55.4591 146.38 55.8547 147.153 55.8547H148.257V56.8043H147.027C145.67 56.8043 144.945 56.0763 144.945 54.7152V49.8408H143.525ZM150.313 56.8043V48.8912H151.354V56.8043H150.313ZM150.833 47.4985C150.423 47.4985 150.092 47.1662 150.092 46.7547C150.092 46.3432 150.423 46.0109 150.833 46.0109C151.243 46.0109 151.575 46.3432 151.575 46.7547C151.575 47.1662 151.243 47.4985 150.833 47.4985ZM157.109 56.9151C155.09 56.9151 153.718 55.5382 153.718 53.1959V52.4996C153.718 50.1731 155.106 48.7805 157.109 48.7805C158.859 48.7805 159.869 49.7933 160.184 51.0278H159.08C158.765 50.2998 158.229 49.7617 157.109 49.7617C155.768 49.7617 154.79 50.7429 154.79 52.4996V53.1959C154.79 54.9368 155.784 55.9338 157.109 55.9338C158.229 55.9338 158.765 55.3958 159.08 54.5095H160.184C159.869 55.9022 158.859 56.9151 157.109 56.9151ZM169.567 56.9151C167.122 56.9151 165.86 55.7123 165.702 53.4017H166.87C167.027 55.0951 167.863 55.8705 169.567 55.8705C171.428 55.8705 172.295 55.0001 172.295 53.8765C172.295 50.8378 165.86 52.4679 165.86 48.4956C165.86 46.8655 167.122 45.6152 169.567 45.6152C171.948 45.6152 173.116 46.7864 173.273 48.8121H172.106C171.917 47.3878 171.223 46.6598 169.567 46.6598C167.8 46.6598 166.996 47.4669 166.996 48.4956C166.996 51.3759 173.431 49.7458 173.431 53.8765C173.431 55.6648 172.169 56.9151 169.567 56.9151ZM178.642 56.9151C176.575 56.9151 175.251 55.5857 175.251 53.1959V52.4996C175.251 50.1257 176.591 48.7805 178.642 48.7805C180.692 48.7805 182.033 50.1257 182.033 52.4996V53.1484H176.323V53.1959C176.323 55.0159 177.238 55.9338 178.642 55.9338C179.951 55.9338 180.566 55.3166 180.881 54.4937H181.954C181.638 55.8547 180.582 56.9151 178.642 56.9151ZM178.642 49.7617C177.285 49.7617 176.418 50.6479 176.323 52.2305H180.944C180.866 50.5846 179.967 49.7617 178.642 49.7617ZM184.241 56.8043V48.8912H185.046L185.172 50.189C185.677 49.2869 186.592 48.7805 187.711 48.7805H188.5V49.7617H187.711C186.245 49.7617 185.33 50.6479 185.282 51.9615V56.8043H184.241ZM192.671 56.8043L189.595 48.8912H190.762L193.318 55.6173L195.746 48.8912H196.851L193.933 56.8043H192.671ZM198.739 56.8043V48.8912H199.78V56.8043H198.739ZM199.26 47.4985C198.85 47.4985 198.519 47.1662 198.519 46.7547C198.519 46.3432 198.85 46.0109 199.26 46.0109C199.67 46.0109 200.001 46.3432 200.001 46.7547C200.001 47.1662 199.67 47.4985 199.26 47.4985ZM205.536 56.9151C203.517 56.9151 202.145 55.5382 202.145 53.1959V52.4996C202.145 50.1731 203.533 48.7805 205.536 48.7805C207.286 48.7805 208.296 49.7933 208.611 51.0278H207.507C207.192 50.2998 206.655 49.7617 205.536 49.7617C204.195 49.7617 203.217 50.7429 203.217 52.4996V53.1959C203.217 54.9368 204.211 55.9338 205.536 55.9338C206.655 55.9338 207.192 55.3958 207.507 54.5095H208.611C208.296 55.9022 207.286 56.9151 205.536 56.9151ZM213.499 56.9151C211.432 56.9151 210.107 55.5857 210.107 53.1959V52.4996C210.107 50.1257 211.448 48.7805 213.499 48.7805C215.549 48.7805 216.89 50.1257 216.89 52.4996V53.1484H211.18V53.1959C211.18 55.0159 212.095 55.9338 213.499 55.9338C214.808 55.9338 215.423 55.3166 215.738 54.4937H216.811C216.495 55.8547 215.439 56.9151 213.499 56.9151ZM213.499 49.7617C212.142 49.7617 211.275 50.6479 211.18 52.2305H215.801C215.722 50.5846 214.823 49.7617 213.499 49.7617Z" fill="white"/>
</svg>
